<?xml version="1.0" encoding="utf-8" ?><svg xmlns="http://www.w3.org/2000/svg" xmlns:xlink="http://www.w3.org/1999/xlink" width="1024" height="1024" viewBox="0 0 1024 1024"><path fill="#BBE1E1" transform="scale(0.5 0.5)" d="M660.274 754.094C677.364 746.536 689.053 741.995 707.651 739.253C769.13 730.189 806.971 720.31 856.779 765.916C870.016 778.804 878.308 792.512 887.519 808.19C923.881 870.081 929.2 901.365 995.191 936.822C1034.42 958.698 1077.65 968.484 1105.69 1004.99C1150.99 1065.42 1120.98 1132.72 1066.89 1175.29C1034.3 1201.85 995.505 1215.59 956.164 1227.99C856.309 1259.47 753.575 1261.04 660.981 1206.46C607.439 1174.9 555.194 1138.38 526.656 1080.86C500.563 1027.94 493.324 971.63 512.505 915.226C538.85 837.118 587.578 789.841 660.274 754.094Z"/><path fill="#1A5D61" transform="scale(0.5 0.5)" d="M660.274 754.094C677.364 746.536 689.053 741.995 707.651 739.253C769.13 730.189 806.971 720.31 856.779 765.916C856.743 769.41 857.083 772.556 855.673 775.671C852.065 775.375 850.71 774.069 847.795 773.937C834.463 761.967 821.751 752.652 804.419 747.134C761.842 733.58 705.532 747.176 667.025 766.439C622.162 790.819 584.213 814.795 555.205 858.564C509.191 927.991 501.153 1005.5 541.701 1079.42C552.624 1099.64 566.417 1118.18 582.651 1134.45C618.789 1170.73 686.578 1210.27 735.393 1224.49C810.596 1246.41 896.225 1235.94 968.904 1209.63C998.371 1198.96 1033.98 1185.4 1058.48 1165.63C1061.44 1172.28 1063.76 1170.73 1066.89 1175.29C1034.3 1201.85 995.505 1215.59 956.164 1227.99C856.309 1259.47 753.575 1261.04 660.981 1206.46C607.439 1174.9 555.194 1138.38 526.656 1080.86C500.563 1027.94 493.324 971.63 512.505 915.226C538.85 837.118 587.578 789.841 660.274 754.094Z"/><path fill="#175E62" transform="scale(0.5 0.5)" d="M856.779 765.916C870.016 778.804 878.308 792.512 887.519 808.19C923.881 870.081 929.2 901.365 995.191 936.822C992.897 937.087 990.6 937.321 988.299 937.525L989.556 939.965C987.688 943.027 987.782 942.863 984.998 945.152L985.015 947.234C921.202 915.121 901.741 860.238 869.818 801.86C865.241 793.49 853.699 782.788 847.795 773.937C850.71 774.069 852.065 775.375 855.673 775.671C857.083 772.556 856.743 769.41 856.779 765.916Z"/><path fill="#1A5D61" transform="scale(0.5 0.5)" d="M1105.69 1004.99C1150.99 1065.42 1120.98 1132.72 1066.89 1175.29C1063.76 1170.73 1061.44 1172.28 1058.48 1165.63C1083.03 1147.73 1108.59 1114.68 1113.2 1084.13C1117.8 1053.64 1108.89 1032.78 1091.65 1008.7L1093.14 1008.1C1096.39 1011.63 1098.57 1015.83 1103.57 1014.14C1105.97 1010.5 1105.62 1009.58 1105.69 1004.99Z"/><path fill="#1A5D61" transform="scale(0.5 0.5)" d="M995.191 936.822C1034.42 958.698 1077.65 968.484 1105.69 1004.99C1105.62 1009.58 1105.97 1010.5 1103.57 1014.14C1098.57 1015.83 1096.39 1011.63 1093.14 1008.1L1091.65 1008.7C1059.65 976.909 1024.43 968.952 985.015 947.234L984.998 945.152C987.782 942.863 987.688 943.027 989.556 939.965L988.299 937.525C990.6 937.321 992.897 937.087 995.191 936.822Z"/><path fill="#1A5D61" transform="scale(0.5 0.5)" d="M917.396 931.147C936.46 929.361 930.854 944.248 927.389 956.722C925.487 963.565 922.201 973.828 915.065 976.23L913.268 974.942C910.552 967.254 912.331 962.668 913.923 954.571C896.392 970.937 876.054 986.69 857.23 1001.75C853.509 1004.43 850.467 1006.89 845.78 1006.4L845.295 1004.65C850.366 992.238 892.859 955.615 904.8 946.832C899.059 947.331 888.767 949.255 884.651 945.023C884.31 943.456 883.716 942.464 884.441 941.423C888.514 935.562 909.801 932.942 917.396 931.147Z"/><path fill="#1A5D61" transform="scale(0.5 0.5)" d="M968.749 965.021C978.748 967.114 994.147 986.219 989.157 995.536L987.056 996.144C980.689 994.033 978.86 990.619 974.897 985.302C975.987 1000.07 977.222 1026.67 974.575 1040.72C973.024 1042.45 973.725 1041.85 971.347 1042.72L969.428 1041.78C963.909 1033.29 964.365 1000.09 964.75 988.949C960.994 992.694 959.388 995.079 954.289 995.205C949.553 988.852 963.312 969.833 968.749 965.021Z"/><path fill="#1A5D61" transform="scale(0.5 0.5)" d="M867.291 878.458C869.889 878.541 873.506 879.675 875.586 880.659C887.565 886.191 906.753 893.881 886.418 905.763C879.808 909.625 870.935 917.458 863.821 911.773C866.853 906.275 869.77 906.304 870.639 901.356C867.53 899.441 866.576 900.206 862.182 900.223C854.176 899.956 823.901 898.744 821.769 890.488C827.442 885.22 862.548 890.176 873.355 890.298C867.974 885.829 865.309 885.436 867.291 878.458Z"/><path fill="#1A5D61" transform="scale(0.5 0.5)" d="M541.802 789.908C544.633 790.249 543.474 789.59 545.507 791.581C544.833 794.818 529.553 809.221 525.909 812.813C496.138 842.156 479.556 880.223 466.73 919.337C464.294 926.766 461.263 947.479 457.509 952.871C448.837 949.707 455.967 921.233 457.779 913.768C469.064 867.266 499.63 814.298 541.802 789.908Z"/><path fill="#1A5D61" fill-opacity="0.98823529" transform="scale(0.5 0.5)" d="M1164.85 1092.36C1167.35 1093.01 1167.24 1093.08 1169.38 1094.6C1171.04 1098.01 1171.08 1100.21 1170.34 1103.87C1160.95 1149.93 1128.54 1178.48 1092.76 1204.08C1091.05 1204.72 1092 1204.64 1089.92 1203.99L1089.1 1201.5C1091.26 1193.09 1110.29 1181.47 1116.66 1174.09C1131.99 1156.35 1147.8 1137.67 1156.44 1115.55C1159.78 1107 1159.63 1100.83 1164.85 1092.36Z"/><path fill="#1A5D61" fill-opacity="0.98431373" transform="scale(0.5 0.5)" d="M454.443 985.34L457.06 986.792C459.115 991.241 472.576 1065.09 472.579 1070.7C455.165 1062.64 452.389 1002.66 454.443 985.34Z"/><path fill="#175E62" transform="scale(0.5 0.5)" d="M1168.58 1216.54C1172.17 1217.14 1172.32 1217.37 1174.13 1219.97C1174.33 1222.49 1174.1 1224.36 1172.43 1226.33C1162.65 1237.83 1143.5 1257.56 1131.39 1265.26C1095.45 1288.07 1028.17 1321.79 986.984 1328.84C983.453 1328.32 981.554 1328.56 981.288 1324.86C982.557 1323.32 1064.6 1289.04 1074.88 1284.68C1118.29 1266.28 1134.11 1246.18 1168.58 1216.54Z"/><path fill="#17474A" transform="scale(0.5 0.5)" d="M608.645 1573.68C584.363 1559.71 548.659 1529.35 527.621 1508.92C519.149 1500.69 490.414 1465.06 487.959 1450.49C487.637 1448.58 489.725 1447.36 491.195 1446.51C492.119 1446.77 493.043 1447.04 493.966 1447.31C507.929 1462.91 518.095 1481.18 532.698 1496.35C553.948 1518.43 577.906 1540.43 604.345 1556.15C609.384 1559.14 614.395 1561.9 619.229 1565.15C617.82 1567.14 616.77 1568.82 615.715 1571.02C612.911 1572.92 611.891 1572.95 608.645 1573.68Z"/><path fill="#17474A" transform="scale(0.5 0.5)" d="M1193.41 1249.4C1196.27 1249.53 1196.16 1249.57 1198.86 1250.6C1199.31 1251.46 1199.76 1252.33 1200.22 1253.19C1198.98 1263.25 1192.59 1280.6 1190.33 1290.01C1183.66 1317.84 1178.6 1347.56 1180.09 1375.98C1180.74 1388.43 1184.94 1405.52 1183.76 1416.97C1181.87 1419.92 1182.47 1418.99 1178.69 1420.65C1175.56 1417.3 1173.89 1412.31 1172.52 1407.99C1159.36 1366.62 1174.1 1287.09 1193.41 1249.4Z"/><path fill="#17474A" transform="scale(0.5 0.5)" d="M586.805 1306.9C568.288 1298.14 550.252 1286.21 534.244 1273.34C527.307 1267.76 488.167 1237.92 496.565 1229.85C502.535 1229.81 511.727 1239.85 516.633 1244.43C541.794 1267.96 566.586 1283.51 597.237 1298.68C593.023 1299.39 589.605 1299.89 586.801 1303.47L586.805 1306.9Z"/><path fill="#17474A" transform="scale(0.5 0.5)" d="M597.237 1298.68L612.944 1305.35C624.968 1310.01 661.461 1319.4 667.252 1324.69L668.186 1326.94C662.062 1337.87 609.42 1317.09 599.703 1312.83C595.793 1311.46 590.649 1308.77 586.805 1306.9L586.801 1303.47C589.605 1299.89 593.023 1299.39 597.237 1298.68Z"/><path fill="#175E62" transform="scale(0.5 0.5)" d="M597.237 1298.68L612.944 1305.35C612.179 1308.78 611.508 1309.24 609.285 1311.88C604.646 1313.7 604.28 1312.52 599.703 1312.83C595.793 1311.46 590.649 1308.77 586.805 1306.9L586.801 1303.47C589.605 1299.89 593.023 1299.39 597.237 1298.68Z"/><path fill="#1A383D" transform="scale(0.5 0.5)" d="M1463.01 1390.68C1476.44 1406.13 1487.18 1432.15 1480.12 1452.49L1478.47 1453.63C1475.73 1452.51 1473.58 1448.95 1472.76 1446.28C1467.4 1428.58 1462.54 1414.28 1453.25 1398.08C1453.39 1398.01 1455.61 1396.99 1455.62 1396.85C1455.63 1396.57 1459 1392.99 1459.01 1392.99C1462.12 1392.42 1460.72 1393.18 1463.01 1390.68Z"/><path fill="#175E62" transform="scale(0.5 0.5)" d="M652.181 1582.89C663.388 1588.34 674.442 1593.75 685.827 1598.85C691.339 1601.31 710.195 1606.26 713.504 1608.47L713.637 1610.13C700.436 1619.99 656.477 1599.6 643.873 1592.83C642.51 1588.25 642.508 1588.43 640.861 1584.11C644.205 1585.09 649.234 1584.88 652.181 1582.89Z"/><path fill="#17474A" fill-opacity="0.98823529" transform="scale(0.5 0.5)" d="M1416.35 1348.15C1402.73 1328.38 1396.3 1311.36 1393.7 1287.43C1393.14 1282.21 1391.68 1272.78 1394.92 1268.61L1396.68 1268.59C1403.06 1274.25 1402.16 1286.74 1404.23 1295.39C1408.28 1312.24 1414.93 1324.29 1424.05 1338.66C1420.9 1339.13 1420.05 1338.88 1417.79 1341.06C1416.82 1344.34 1416.74 1344.92 1416.35 1348.15Z"/><path fill="#17474A" transform="scale(0.5 0.5)" d="M1436.04 1354.75C1446.21 1367.05 1454.85 1376.92 1463.01 1390.68C1460.72 1393.18 1462.12 1392.42 1459.01 1392.99C1459 1392.99 1455.63 1396.57 1455.62 1396.85C1455.61 1396.99 1453.39 1398.01 1453.25 1398.08C1447.84 1389.8 1439.96 1378.67 1433.9 1370.93C1433.9 1364.9 1434.19 1362.28 1433.77 1356.02L1436.04 1354.75Z"/><path fill="#175E62" fill-opacity="0.98431373" transform="scale(0.5 0.5)" d="M763.421 1616.36C773.209 1616.15 804.715 1615.46 811.202 1621.33C812.272 1625.01 812.303 1623.15 810.465 1627.07C802.268 1628.15 762.185 1629.95 760.987 1619.19L763.421 1616.36Z"/><path fill="#1A383D" transform="scale(0.5 0.5)" d="M608.645 1573.68C611.891 1572.95 612.911 1572.92 615.715 1571.02C616.77 1568.82 617.82 1567.14 619.229 1565.15C629.825 1571.05 641.293 1577.76 652.181 1582.89C649.234 1584.88 644.205 1585.09 640.861 1584.11C642.508 1588.43 642.51 1588.25 643.873 1592.83C631.945 1586.58 620.076 1580.79 608.645 1573.68Z"/><path fill="#1A383D" transform="scale(0.5 0.5)" d="M1424.05 1338.66C1427.69 1343.6 1432.22 1350.14 1436.04 1354.75L1433.77 1356.02C1434.19 1362.28 1433.9 1364.9 1433.9 1370.93C1427.58 1363.33 1421.87 1356.39 1416.35 1348.15C1416.74 1344.92 1416.82 1344.34 1417.79 1341.06C1420.05 1338.88 1420.9 1339.13 1424.05 1338.66Z"/><path fill="#175E62" transform="scale(0.5 0.5)" d="M840.558 424.613L841.961 421.863C844.998 425.989 843.345 427.183 846.821 431.384L847.141 430.695C849.934 433.853 848.531 434.556 849.575 438.38C848.709 441.936 847.869 443.825 846.469 447.239C839.697 475.66 850.427 489.707 856.947 516.754C860.536 531.643 861.048 536.301 861.254 551.095L871.767 548.937C895.676 543.613 927.476 550.753 947.828 563.987C981.849 585.931 1005.93 622.811 1042.67 640.744C1067.7 652.963 1097.25 653.128 1124.5 654.372C1196.34 657.651 1264.59 718.515 1262 792.99C1261.17 813.823 1257.29 835.299 1266.41 855.009C1283.41 891.739 1324.54 906.695 1345.04 941.006C1352 952.653 1361.02 973.017 1359.26 986.834C1359.84 998.497 1359.23 1016.21 1352.85 1026.31C1350.07 1030.51 1347.2 1034.64 1344.23 1038.71C1365.49 1081.01 1392.32 1123.9 1428.75 1153.98C1439.09 1162.52 1445.06 1169.21 1457.66 1175.12C1464.15 1169.67 1466.35 1167.87 1473.66 1163.75C1477.69 1164.51 1477.76 1163.85 1480.29 1166.18C1474.56 1173.2 1462.19 1174.08 1461.72 1180.12C1464.8 1179.03 1463.73 1179.45 1466.36 1177.11C1470.05 1176.72 1473.82 1177 1476.95 1175.37L1478.97 1179.63C1476.23 1182.27 1476.28 1181.45 1475.41 1184.62C1479.33 1191.62 1524.7 1215.99 1533.56 1219.51C1545.36 1225.78 1572.85 1231.72 1568.64 1247.16C1563.03 1254.87 1560.25 1256.13 1551.99 1260.28C1538.51 1264.46 1511.99 1253.58 1499.72 1247.91C1504.7 1247.88 1506.13 1248.61 1509.84 1245.03L1511.72 1243.29C1472.27 1224.53 1435.09 1201.34 1400.89 1174.16C1390.33 1165.7 1381.17 1157.03 1371.17 1147.99C1367.53 1144.69 1364.72 1143.29 1360 1143.81C1351 1153 1364.65 1193.33 1361.43 1209.92L1359.45 1208.53C1356.21 1212 1357.96 1234.63 1357.63 1241.4C1357.58 1246.08 1357.34 1256.84 1352.53 1258.74C1348.47 1255.42 1347.58 1229.07 1346.27 1220.96C1340.74 1185.88 1329.66 1151.9 1313.44 1120.31C1311.13 1115.85 1307.31 1107.45 1303.62 1104.75C1299.81 1106.07 1292.65 1117.39 1287.56 1121.67C1282.9 1125.58 1278.73 1129.09 1273.78 1132.92C1273 1140.44 1272.39 1145.68 1270.87 1153.04C1265.55 1178.59 1239.86 1208.48 1211.66 1202.48C1210.3 1202.19 1208.95 1201.89 1207.59 1201.57L1202.47 1198.27C1195.56 1189.66 1195.01 1185.78 1192.3 1175.49C1184.68 1182.55 1176.32 1191.89 1168.74 1198.23C1164.69 1198.5 1164.3 1199.29 1159.66 1198.72L1158.82 1197.28C1159.39 1193.24 1159.59 1192.06 1158.79 1188.1C1165.7 1181.77 1172.23 1175.03 1178.34 1167.91C1187.9 1156.77 1206.46 1133.06 1208.77 1118.28C1209.88 1108.08 1199.04 1095.51 1202.4 1085.57C1212.3 1056.32 1225.1 1043.8 1195.48 1018.43C1183.2 1015.39 1171.85 1017.59 1159.15 1012.77C1131.59 1004.93 1135.36 970.646 1110.21 961.797C1054.2 942.094 1015.02 964.239 992.258 893.051C982.954 889.12 972.395 884.844 963.852 879.251C940.791 864.152 925.718 837.152 919.943 810.649C918.519 804.111 918.712 784.66 916.741 780.459C911.115 768.469 897.125 749.292 889.002 738.354C862.606 702.812 833.826 688.843 790.803 683.131C790.694 683.134 790.584 683.138 790.474 683.141C765.126 680.52 748.603 687.725 727.815 668.141C714.237 672.032 699.747 674.968 685.802 678.813C682.176 679.933 678.562 681.09 674.961 682.285C670.025 682.015 669.412 682.584 666.74 679.678C666.047 675.763 665.996 675.513 664.157 671.921L663.727 671.098L670.347 668.656C686.803 663.753 702.987 659.751 719.623 655.583L719.889 654.667C732.201 613.2 783.478 630.265 786.622 616.44C783.709 610.629 774.751 609.386 769.504 606.899C746.295 595.9 723.649 591.984 698.171 591.75C693.874 591.71 683.488 591.336 680.066 588.44C678.735 584.423 678.904 586.456 679.844 582.097C691.161 579.781 706.105 577.83 717.556 577.876L718.983 577.643L719.749 576.528C716.63 574.817 712.566 574.466 708.961 573.881C702.949 574.526 682.191 573.848 677.082 570.322C675.761 567.013 676.199 568.008 677.365 563.754C706.389 562.916 727.202 559.566 756.123 564.217C745.573 550.199 735.523 535.81 727.922 519.915C722.312 510.47 719.199 499.32 717.27 488.608L723.101 481.712C727.331 479.547 730.087 478.921 734.572 477.643C735.149 472.735 734.274 473.3 737.012 470.505C742.186 470.294 744.685 473.724 747.197 478.096C752.781 487.814 758.02 496.915 764.418 506.131C773.306 516.997 780.671 525.593 790.944 535.475C805.238 549.239 814.221 556.891 831.459 566.376C834.709 564.684 838.124 562.71 841.355 560.927C856.245 512.851 808.51 478.721 840.558 424.613Z"/><path fill="#1E8997" transform="scale(0.5 0.5)" d="M840.558 424.613L841.961 421.863C844.998 425.989 843.345 427.183 846.821 431.384L847.141 430.695C849.934 433.853 848.531 434.556 849.575 438.38C848.709 441.936 847.869 443.825 846.469 447.239C839.697 475.66 850.427 489.707 856.947 516.754C860.536 531.643 861.048 536.301 861.254 551.095L871.767 548.937C875.148 549.031 881.024 548.724 883.666 550.25L882.719 550.629L882.295 549.871L881.265 551.012L879.876 551.431C874.034 553.232 865.434 556.486 866.156 564.127C859.536 566.244 852.239 568.63 847.391 573.858C845.333 587.421 942.191 595.678 949.017 610.356L952.853 614.218L952.424 615.274C948.214 614.919 947.098 614.668 943.197 616.223L943.488 618.785L942.136 619.738C957.254 626.23 974.814 644.557 987.24 655.531C1009.93 675.568 1028.95 688.195 1057.33 698.048C1015.02 701.426 977.531 725.93 986.545 773.465C991.904 801.728 1001.67 849.261 1041.07 841.274C1049.23 839.58 1065.45 828.304 1071.52 830.435C1073.69 840.728 1042.3 846.837 1050.96 874.735C1070.83 907.889 1112.05 917.632 1147.84 921.056L1143.93 923.773L1143.88 925.183C1146.7 926.217 1147.48 926.461 1150.42 927.05L1150.31 927.975L1149.31 928.418C1152.12 928.973 1154.97 929.583 1157.8 930.022C1207.99 940.662 1215.97 955.025 1245.52 997.136C1249.3 1002.52 1254.32 1011.55 1256.76 1017.62C1260.06 1025.81 1260.81 1036.42 1266.13 1043.62C1277.22 1058.61 1292.64 1069.26 1304.49 1083.75C1338.88 1125.79 1356.65 1187.67 1357.63 1241.4C1357.58 1246.08 1357.34 1256.84 1352.53 1258.74C1348.47 1255.42 1347.58 1229.07 1346.27 1220.96C1340.74 1185.88 1329.66 1151.9 1313.44 1120.31C1311.13 1115.85 1307.31 1107.45 1303.62 1104.75C1299.81 1106.07 1292.65 1117.39 1287.56 1121.67C1282.9 1125.58 1278.73 1129.09 1273.78 1132.92C1273 1140.44 1272.39 1145.68 1270.87 1153.04C1265.55 1178.59 1239.86 1208.48 1211.66 1202.48C1210.3 1202.19 1208.95 1201.89 1207.59 1201.57L1202.47 1198.27C1195.56 1189.66 1195.01 1185.78 1192.3 1175.49C1184.68 1182.55 1176.32 1191.89 1168.74 1198.23C1164.69 1198.5 1164.3 1199.29 1159.66 1198.72L1158.82 1197.28C1159.39 1193.24 1159.59 1192.06 1158.79 1188.1C1165.7 1181.77 1172.23 1175.03 1178.34 1167.91C1187.9 1156.77 1206.46 1133.06 1208.77 1118.28C1209.88 1108.08 1199.04 1095.51 1202.4 1085.57C1212.3 1056.32 1225.1 1043.8 1195.48 1018.43C1183.2 1015.39 1171.85 1017.59 1159.15 1012.77C1131.59 1004.93 1135.36 970.646 1110.21 961.797C1054.2 942.094 1015.02 964.239 992.258 893.051C982.954 889.12 972.395 884.844 963.852 879.251C940.791 864.152 925.718 837.152 919.943 810.649C918.519 804.111 918.712 784.66 916.741 780.459C911.115 768.469 897.125 749.292 889.002 738.354C862.606 702.812 833.826 688.843 790.803 683.131C790.694 683.134 790.584 683.138 790.474 683.141C765.126 680.52 748.603 687.725 727.815 668.141C714.237 672.032 699.747 674.968 685.802 678.813C682.176 679.933 678.562 681.09 674.961 682.285C670.025 682.015 669.412 682.584 666.74 679.678C666.047 675.763 665.996 675.513 664.157 671.921L663.727 671.098L670.347 668.656C686.803 663.753 702.987 659.751 719.623 655.583L719.889 654.667C732.201 613.2 783.478 630.265 786.622 616.44C783.709 610.629 774.751 609.386 769.504 606.899C746.295 595.9 723.649 591.984 698.171 591.75C693.874 591.71 683.488 591.336 680.066 588.44C678.735 584.423 678.904 586.456 679.844 582.097C691.161 579.781 706.105 577.83 717.556 577.876L718.983 577.643L719.749 576.528C716.63 574.817 712.566 574.466 708.961 573.881C702.949 574.526 682.191 573.848 677.082 570.322C675.761 567.013 676.199 568.008 677.365 563.754C706.389 562.916 727.202 559.566 756.123 564.217C745.573 550.199 735.523 535.81 727.922 519.915C722.312 510.47 719.199 499.32 717.27 488.608L723.101 481.712C727.331 479.547 730.087 478.921 734.572 477.643C735.149 472.735 734.274 473.3 737.012 470.505C742.186 470.294 744.685 473.724 747.197 478.096C752.781 487.814 758.02 496.915 764.418 506.131C773.306 516.997 780.671 525.593 790.944 535.475C805.238 549.239 814.221 556.891 831.459 566.376C834.709 564.684 838.124 562.71 841.355 560.927C856.245 512.851 808.51 478.721 840.558 424.613Z"/><path fill="#BBE1E1" transform="scale(0.5 0.5)" d="M840.558 424.613L841.961 421.863C844.998 425.989 843.345 427.183 846.821 431.384L847.141 430.695C849.934 433.853 848.531 434.556 849.575 438.38C848.709 441.936 847.869 443.825 846.469 447.239C839.697 475.66 850.427 489.707 856.947 516.754C860.536 531.643 861.048 536.301 861.254 551.095L871.767 548.937C875.148 549.031 881.024 548.724 883.666 550.25L882.719 550.629L882.295 549.871L881.265 551.012L879.876 551.431C874.034 553.232 865.434 556.486 866.156 564.127C859.536 566.244 852.239 568.63 847.391 573.858C845.333 587.421 942.191 595.678 949.017 610.356L952.853 614.218L952.424 615.274C948.214 614.919 947.098 614.668 943.197 616.223L943.488 618.785L942.136 619.738C957.254 626.23 974.814 644.557 987.24 655.531C1009.93 675.568 1028.95 688.195 1057.33 698.048C1015.02 701.426 977.531 725.93 986.545 773.465C991.904 801.728 1001.67 849.261 1041.07 841.274C1049.23 839.58 1065.45 828.304 1071.52 830.435C1073.69 840.728 1042.3 846.837 1050.96 874.735C1070.83 907.889 1112.05 917.632 1147.84 921.056L1143.93 923.773L1143.88 925.183C1146.7 926.217 1147.48 926.461 1150.42 927.05L1150.31 927.975L1149.31 928.418C1125.72 925.679 1095.22 921.649 1073.69 912.237C1056.02 904.512 1051.36 895.554 1045.22 878.921C1028.23 839.33 1002.9 858.559 984.153 830.403C977.454 820.344 979.437 795.522 977.945 782.968C974.697 755.631 969.033 732.396 953.925 708.965C936.668 682.509 909.678 663.92 878.808 657.228C869.94 654.871 855.329 651.322 847.494 647.234C831.119 638.279 819.545 620.512 803.581 610.821C772.122 591.724 739.075 581.864 702.401 580.36C702.002 580.268 701.602 580.175 701.203 580.082C707.566 579.526 711.256 579.165 717.556 577.876L718.983 577.643L719.749 576.528C716.63 574.817 712.566 574.466 708.961 573.881C702.949 574.526 682.191 573.848 677.082 570.322C675.761 567.013 676.199 568.008 677.365 563.754C706.389 562.916 727.202 559.566 756.123 564.217C745.573 550.199 735.523 535.81 727.922 519.915C722.312 510.47 719.199 499.32 717.27 488.608L723.101 481.712C727.331 479.547 730.087 478.921 734.572 477.643C735.149 472.735 734.274 473.3 737.012 470.505C742.186 470.294 744.685 473.724 747.197 478.096C752.781 487.814 758.02 496.915 764.418 506.131C773.306 516.997 780.671 525.593 790.944 535.475C805.238 549.239 814.221 556.891 831.459 566.376C834.709 564.684 838.124 562.71 841.355 560.927C856.245 512.851 808.51 478.721 840.558 424.613Z"/><defs><linearGradient id="gradient_0" gradientUnits="userSpaceOnUse" x1="920.6897" y1="486.87079" x2="851.74457" y2="594.12109"><stop offset="0" stop-color="#104546"/><stop offset="1" stop-color="#1A6468"/></linearGradient></defs><path fill="url(#gradient_0)" transform="scale(0.5 0.5)" d="M840.558 424.613L841.961 421.863C844.998 425.989 843.345 427.183 846.821 431.384L847.141 430.695C849.934 433.853 848.531 434.556 849.575 438.38C848.709 441.936 847.869 443.825 846.469 447.239C839.697 475.66 850.427 489.707 856.947 516.754C860.536 531.643 861.048 536.301 861.254 551.095L871.767 548.937C875.148 549.031 881.024 548.724 883.666 550.25L882.719 550.629L882.295 549.871L881.265 551.012L879.876 551.431C874.034 553.232 865.434 556.486 866.156 564.127C859.536 566.244 852.239 568.63 847.391 573.858C845.333 587.421 942.191 595.678 949.017 610.356L952.853 614.218L952.424 615.274C948.214 614.919 947.098 614.668 943.197 616.223L943.488 618.785L942.136 619.738C930.54 615.289 919.837 609.069 907.169 606.684C855.491 596.953 816.676 583.284 780.675 541.833C781.484 539.651 782.05 538.283 783.048 536.183C786.564 534.48 786.404 535.173 790.944 535.475C805.238 549.239 814.221 556.891 831.459 566.376C834.709 564.684 838.124 562.71 841.355 560.927C856.245 512.851 808.51 478.721 840.558 424.613Z"/><path fill="#1A5D61" transform="scale(0.5 0.5)" d="M840.558 424.613L841.961 421.863C844.998 425.989 843.345 427.183 846.821 431.384L847.141 430.695C849.934 433.853 848.531 434.556 849.575 438.38C848.709 441.936 847.869 443.825 846.469 447.239C845.203 446.233 844.47 445.621 843.278 444.488L842.307 443.549L841.963 444.052C840.305 440.593 841.589 430.367 840.558 424.613Z"/><path fill="#1A5D61" transform="scale(0.5 0.5)" d="M732.445 503.442C746.713 526.926 760.926 550.306 778.765 571.215C780.039 572.709 779.743 574.568 779.667 576.298C777.881 579.502 778.076 579.601 774.688 581.362C767.38 580.592 760.807 578.213 754.012 576.954C742.541 574.829 720.175 572.187 708.961 573.881C702.949 574.526 682.191 573.848 677.082 570.322C675.761 567.013 676.199 568.008 677.365 563.754C706.389 562.916 727.202 559.566 756.123 564.217C745.573 550.199 735.523 535.81 727.922 519.915C728.274 513.318 729.198 509.211 732.445 503.442Z"/><path fill="#1A5D61" transform="scale(0.5 0.5)" d="M734.572 477.643C735.149 472.735 734.274 473.3 737.012 470.505C742.186 470.294 744.685 473.724 747.197 478.096C752.781 487.814 758.02 496.915 764.418 506.131C764.97 511.556 766.605 515.365 760.635 517.513C749.164 502.873 744.855 492.961 736.317 476.785L734.572 477.643Z"/><path fill="#1A5D61" transform="scale(0.5 0.5)" d="M764.418 506.131C773.306 516.997 780.671 525.593 790.944 535.475C786.404 535.173 786.564 534.48 783.048 536.183C782.05 538.283 781.484 539.651 780.675 541.833C773.051 533.537 767.518 526.395 760.635 517.513C766.605 515.365 764.97 511.556 764.418 506.131Z"/><path fill="#1A5D61" transform="scale(0.5 0.5)" d="M717.27 488.608L723.101 481.712C726.197 489.658 728.609 495.873 732.445 503.442C729.198 509.211 728.274 513.318 727.922 519.915C722.312 510.47 719.199 499.32 717.27 488.608Z"/><path fill="#175E62" transform="scale(0.5 0.5)" d="M966.409 672.864L969.752 675.911L971.454 675.809C973.392 671.617 972.28 667.072 974.129 664.35C981.149 665.647 982.132 674.651 984.808 679.619C1003.2 713.766 954.957 697.509 952.675 688.205L953.803 686.683C957.181 686.505 963.055 687.079 964.65 685.42L963.361 682.855L963.434 682.078C960.39 676.893 962.593 676.674 966.409 672.864Z"/><path fill="#1A5D61" transform="scale(0.5 0.5)" d="M949.537 658.901C955.677 663.613 960.586 667.749 966.409 672.864C962.593 676.674 960.39 676.893 963.434 682.078L963.361 682.855C958.148 680.443 948.628 670.76 943.975 666.323C946.579 663.309 947.475 662.263 949.537 658.901Z"/><path fill="#175E62" transform="scale(0.5 0.5)" d="M943.975 666.323C942.392 664.795 940.819 663.255 939.258 661.703C935.547 658.074 933.033 656.266 933.637 650.731L935.464 649.928C941.742 651.117 944.796 654.623 949.537 658.901C947.475 662.263 946.579 663.309 943.975 666.323Z"/><path fill="#175E62" transform="scale(0.5 0.5)" d="M865.146 665.042C865.379 663.275 865.088 664.255 866.41 662.249C866.385 662.251 870.39 661.928 870.598 661.86C876.069 660.071 877.512 665.741 882.953 663.656L883.293 662.319C879.612 660.8 879.244 661.364 877.363 658.66L878.808 657.228C909.678 663.92 936.668 682.509 953.925 708.965C969.033 732.396 974.697 755.631 977.945 782.968C979.437 795.522 977.454 820.344 984.153 830.403C1002.9 858.559 1028.23 839.33 1045.22 878.921C1051.36 895.554 1056.02 904.512 1073.69 912.237C1095.22 921.649 1125.72 925.679 1149.31 928.418C1152.12 928.973 1154.97 929.583 1157.8 930.022C1207.99 940.662 1215.97 955.025 1245.52 997.136C1249.3 1002.52 1254.32 1011.55 1256.76 1017.62C1260.06 1025.81 1260.81 1036.42 1266.13 1043.62C1277.22 1058.61 1292.64 1069.26 1304.49 1083.75C1338.88 1125.79 1356.65 1187.67 1357.63 1241.4C1357.58 1246.08 1357.34 1256.84 1352.53 1258.74C1348.47 1255.42 1347.58 1229.07 1346.27 1220.96C1340.74 1185.88 1329.66 1151.9 1313.44 1120.31C1311.13 1115.85 1307.31 1107.45 1303.62 1104.75C1299.81 1106.07 1292.65 1117.39 1287.56 1121.67C1282.9 1125.58 1278.73 1129.09 1273.78 1132.92C1273 1140.44 1272.39 1145.68 1270.87 1153.04C1270.35 1145.41 1270.21 1139.37 1270.25 1131.7C1269.07 1130.42 1268.12 1129.4 1266.85 1128.19L1265.91 1127.32C1265.76 1124.62 1266.77 1122.69 1267.72 1120.13C1268.37 1119.22 1272.41 1116.37 1273.62 1115.37C1286.18 1105 1288.64 1104.96 1292.21 1089.51C1289.96 1086.8 1266.34 1064.03 1263.3 1061.42C1262.73 1065.68 1262.09 1069.93 1261.4 1074.17C1260.56 1079.12 1258.75 1087.98 1254.66 1090.9C1248.22 1085.46 1251.42 1058.15 1249.28 1048.71C1246.33 1036.52 1243.99 1019.05 1236.74 1008.73C1217.29 981.566 1204.07 954.075 1169 945.271C1135.16 936.966 1051.37 937.779 1037.98 897.182C1022.7 850.848 1002.77 871.425 974.26 841.758C967.008 834.211 965.699 814.901 965.388 803.995C964.56 774.995 961.559 745.102 945.681 719.835C925.337 683.475 903.329 675.077 865.146 665.042Z"/><path fill="#175E62" transform="scale(0.5 0.5)" d="M790.803 683.131C794.064 682.497 800.17 682.889 803.842 682.897C804.292 680.518 803.934 681.324 805.222 679.295C812.412 678.824 816.683 677.594 823.958 677.484C863.393 688.427 894.086 717.328 914.619 752.183C917.19 756.549 917.646 757.841 920.861 761.998C920.995 749.941 921.628 740.321 922.609 728.318C925.336 732.154 927.923 735.856 929.315 740.418C934.738 758.178 929.583 786.902 933.921 808.364C936.924 823.219 942.833 834.332 950.316 847.31C952.578 851.234 953.682 855.812 956.383 859.457C969.026 876.514 991.553 873.08 1000.22 883.904C1004.86 889.698 1007.65 897.245 1010.79 903.944C1020.85 925.429 1036.48 934.284 1059.05 938.11C1085.59 942.608 1120.21 943.446 1136.92 967.612C1149.13 985.256 1146.35 997.907 1171.49 1002.85C1189.92 1006.48 1207.03 1003.75 1218.97 1021.5C1227.31 1033.9 1229.34 1049.26 1226.26 1063.68C1224.56 1071.65 1217.51 1077.76 1216.27 1084.21C1214.16 1095.23 1222.63 1106.32 1221.51 1118.75C1220.34 1131.64 1213.87 1141.58 1210.74 1153.75C1208.45 1162.63 1208.08 1172.36 1206.72 1181.46C1206.41 1186.89 1207.4 1190.57 1203.23 1194.46L1202.47 1198.27C1195.56 1189.66 1195.01 1185.78 1192.3 1175.49C1184.68 1182.55 1176.32 1191.89 1168.74 1198.23C1164.69 1198.5 1164.3 1199.29 1159.66 1198.72L1158.82 1197.28C1159.39 1193.24 1159.59 1192.06 1158.79 1188.1C1165.7 1181.77 1172.23 1175.03 1178.34 1167.91C1187.9 1156.77 1206.46 1133.06 1208.77 1118.28C1209.88 1108.08 1199.04 1095.51 1202.4 1085.57C1212.3 1056.32 1225.1 1043.8 1195.48 1018.43C1183.2 1015.39 1171.85 1017.59 1159.15 1012.77C1131.59 1004.93 1135.36 970.646 1110.21 961.797C1054.2 942.094 1015.02 964.239 992.258 893.051C982.954 889.12 972.395 884.844 963.852 879.251C940.791 864.152 925.718 837.152 919.943 810.649C918.519 804.111 918.712 784.66 916.741 780.459C911.115 768.469 897.125 749.292 889.002 738.354C862.606 702.812 833.826 688.843 790.803 683.131Z"/><path fill="#1A5D61" transform="scale(0.5 0.5)" d="M679.844 582.097C691.161 579.781 706.105 577.83 717.556 577.876C711.256 579.165 707.566 579.526 701.203 580.082C701.602 580.175 702.002 580.268 702.401 580.36C739.075 581.864 772.122 591.724 803.581 610.821C819.545 620.512 831.119 638.279 847.494 647.234C855.329 651.322 869.94 654.871 878.808 657.228L877.363 658.66C879.244 661.364 879.612 660.8 883.293 662.319L882.953 663.656C877.512 665.741 876.069 660.071 870.598 661.86C870.39 661.928 866.385 662.251 866.41 662.249C865.088 664.255 865.379 663.275 865.146 665.042C859.492 663.303 832.823 659.847 825.939 659.033C825.487 655.821 827.356 653.543 829.024 650.545C825.437 641.723 807.744 628.42 799.222 623.511C797.204 625.131 788.171 632.523 786.329 633.055C773.881 636.656 739.78 637.982 734.771 653.844C735.566 673.707 770.521 668.76 783.816 670.146C797.3 671.551 810.604 675.418 823.958 677.484C816.683 677.594 812.412 678.824 805.222 679.295C803.934 681.324 804.292 680.518 803.842 682.897C800.17 682.889 794.064 682.497 790.803 683.131C790.694 683.134 790.584 683.138 790.474 683.141C765.126 680.52 748.603 687.725 727.815 668.141C714.237 672.032 699.747 674.968 685.802 678.813C682.176 679.933 678.562 681.09 674.961 682.285C670.025 682.015 669.412 682.584 666.74 679.678C666.047 675.763 665.996 675.513 664.157 671.921L663.727 671.098L670.347 668.656C686.803 663.753 702.987 659.751 719.623 655.583L719.889 654.667C732.201 613.2 783.478 630.265 786.622 616.44C783.709 610.629 774.751 609.386 769.504 606.899C746.295 595.9 723.649 591.984 698.171 591.75C693.874 591.71 683.488 591.336 680.066 588.44C678.735 584.423 678.904 586.456 679.844 582.097Z"/><path fill="#196870" transform="scale(0.5 0.5)" d="M1267.72 1120.13C1266.77 1122.69 1265.76 1124.62 1265.91 1127.32L1266.85 1128.19C1268.12 1129.4 1269.07 1130.42 1270.25 1131.7C1270.21 1139.37 1270.35 1145.41 1270.87 1153.04C1265.55 1178.59 1239.86 1208.48 1211.66 1202.48C1210.3 1202.19 1208.95 1201.89 1207.59 1201.57L1202.47 1198.27L1203.23 1194.46C1207.4 1190.57 1206.41 1186.89 1206.72 1181.46C1218.29 1211.36 1251.61 1171.84 1256.07 1157.1C1260.63 1142.05 1255.29 1133.12 1267.12 1120.75L1267.72 1120.13Z"/><path fill="#196870" transform="scale(0.5 0.5)" d="M825.939 659.033C822.211 657.404 816.363 655.543 812.38 654.134C817.959 654.323 824.356 653.753 829.024 650.545C827.356 653.543 825.487 655.821 825.939 659.033Z"/><path fill="#1E8997" transform="scale(0.5 0.5)" d="M871.767 548.937C895.676 543.613 927.476 550.753 947.828 563.987C981.849 585.931 1005.93 622.811 1042.67 640.744C1067.7 652.963 1097.25 653.128 1124.5 654.372C1196.34 657.651 1264.59 718.515 1262 792.99C1261.17 813.823 1257.29 835.299 1266.41 855.009C1283.41 891.739 1324.54 906.695 1345.04 941.006C1352 952.653 1361.02 973.017 1359.26 986.834C1359.84 998.497 1359.23 1016.21 1352.85 1026.31C1351.26 1026.52 1349.57 1026.84 1347.98 1027.12L1346.74 1025.73C1347.69 1023.16 1348.35 1021.17 1349.15 1018.55C1348.11 1015.78 1349.05 1016.78 1346.61 1015.22C1343.12 1017.9 1344.4 1021.77 1340.41 1025.19C1336.34 1024.12 1333.06 1015.02 1333.56 1011.24C1321.76 981.553 1309.15 950.126 1287.73 925.962C1273.43 909.842 1251.24 895.76 1241.07 876.626C1221.11 839.086 1228.88 753.473 1172.06 747.599C1162.65 701.336 1100.88 697.824 1064.26 686.805C1050.53 682.672 1039.71 678.069 1027.17 671.126C999.005 655.533 978.389 622.665 949.017 610.356C942.191 595.678 845.333 587.421 847.391 573.858C852.239 568.63 859.536 566.244 866.156 564.127C865.434 556.486 874.034 553.232 879.876 551.431L881.265 551.012L882.295 549.871L882.719 550.629L883.666 550.25C881.024 548.724 875.148 549.031 871.767 548.937Z"/><path fill="#175E62" transform="scale(0.5 0.5)" d="M871.767 548.937C895.676 543.613 927.476 550.753 947.828 563.987C981.849 585.931 1005.93 622.811 1042.67 640.744C1067.7 652.963 1097.25 653.128 1124.5 654.372C1196.34 657.651 1264.59 718.515 1262 792.99C1261.17 813.823 1257.29 835.299 1266.41 855.009C1283.41 891.739 1324.54 906.695 1345.04 941.006C1352 952.653 1361.02 973.017 1359.26 986.834L1356.22 984.953C1353.74 985.183 1353.4 987.308 1350.72 989.992C1348.35 987.886 1347.86 984.847 1346.86 981.692C1342.83 968.643 1336.89 952.383 1328.19 941.757C1304.12 912.352 1274.31 903.394 1255.64 867.246C1233.92 825.18 1254.7 797.954 1241.18 756.327C1235.48 738.773 1223.23 723.013 1210.39 709.917C1182.88 681.857 1146.45 671.4 1108.19 668.774C1081.41 666.936 1060.15 668.467 1035.96 654.161C1023.07 646.537 1014.1 641.879 1002.3 631.509C979.391 611.372 960.394 584.907 932.291 571.605C912.7 562.332 887.236 556.706 866.156 564.127C865.434 556.486 874.034 553.232 879.876 551.431L881.265 551.012L882.295 549.871L882.719 550.629L883.666 550.25C881.024 548.724 875.148 549.031 871.767 548.937Z"/><path fill="#196870" transform="scale(0.5 0.5)" d="M1346.86 981.692C1347.86 984.847 1348.35 987.886 1350.72 989.992C1353.4 987.308 1353.74 985.183 1356.22 984.953L1359.26 986.834C1359.84 998.497 1359.23 1016.21 1352.85 1026.31C1351.26 1026.52 1349.57 1026.84 1347.98 1027.12L1346.74 1025.73C1347.69 1023.16 1348.35 1021.17 1349.15 1018.55C1348.11 1015.78 1349.05 1016.78 1346.61 1015.22C1343.12 1017.9 1344.4 1021.77 1340.41 1025.19C1336.34 1024.12 1333.06 1015.02 1333.56 1011.24C1335.95 1015.56 1338.27 1019.91 1340.52 1024.31C1346.22 1008.15 1347.95 998.704 1346.86 981.692Z"/><path fill="#BBE1E1" transform="scale(0.5 0.5)" d="M1165.16 919.783C1200.27 914.76 1213.38 896.388 1223.82 864.583C1235.27 899.494 1250.33 904.811 1273.99 929.819C1301.61 960.399 1314.72 1002.37 1330.8 1039.46C1360.96 1109.07 1406.71 1163.13 1473.32 1200.15C1493.04 1211.12 1508.05 1220.52 1529.24 1230.05L1531.17 1228.21C1531.88 1225.1 1532.63 1222.56 1533.56 1219.51C1545.36 1225.78 1572.85 1231.72 1568.64 1247.16C1563.03 1254.87 1560.25 1256.13 1551.99 1260.28C1538.51 1264.46 1511.99 1253.58 1499.72 1247.91C1504.7 1247.88 1506.13 1248.61 1509.84 1245.03L1511.72 1243.29C1472.27 1224.53 1435.09 1201.34 1400.89 1174.16C1390.33 1165.7 1381.17 1157.03 1371.17 1147.99C1367.53 1144.69 1364.72 1143.29 1360 1143.81C1351 1153 1364.65 1193.33 1361.43 1209.92L1359.45 1208.53C1356.21 1212 1357.96 1234.63 1357.63 1241.4C1356.65 1187.67 1338.88 1125.79 1304.49 1083.75C1292.64 1069.26 1277.22 1058.61 1266.13 1043.62C1260.81 1036.42 1260.06 1025.81 1256.76 1017.62C1254.32 1011.55 1249.3 1002.52 1245.52 997.136C1215.97 955.025 1207.99 940.662 1157.8 930.022L1158.2 928.558L1156.98 926.935L1157.79 925.804C1163.76 925.104 1164.09 925.61 1165.16 919.783Z"/><path fill="#1A5D61" transform="scale(0.5 0.5)" d="M1533.56 1219.51C1545.36 1225.78 1572.85 1231.72 1568.64 1247.16C1568.39 1243.89 1568.37 1243.48 1567.48 1240.34C1550.34 1236.6 1546.32 1236.69 1529.24 1230.05L1531.17 1228.21C1531.88 1225.1 1532.63 1222.56 1533.56 1219.51Z"/><path fill="#1A5D61" transform="scale(0.5 0.5)" d="M1511.72 1243.29C1521.58 1247.23 1537.88 1253.32 1545.6 1259.96C1547.94 1260.14 1549.63 1260.28 1551.99 1260.28C1538.51 1264.46 1511.99 1253.58 1499.72 1247.91C1504.7 1247.88 1506.13 1248.61 1509.84 1245.03L1511.72 1243.29Z"/><path fill="#1A5D61" transform="scale(0.5 0.5)" d="M1230.29 950.571L1226.51 952.53C1218.53 949.582 1208.94 923.965 1219.42 917.312C1225.55 916.289 1250.69 922.809 1251.57 930.393C1248.96 932.93 1243.12 932.788 1239.22 933.069C1245.21 941.483 1259.27 952.817 1263.46 960.783C1266.79 964.472 1270.7 967.609 1270.18 972.879C1265.47 975.94 1260.94 969.743 1257.82 966.349C1254.99 964.879 1240.93 950.464 1237.72 947.283C1235.3 945.153 1231.52 941.077 1228.63 940.795C1227.87 943.526 1229.3 947.863 1230.29 950.571Z"/><path fill="#AAE1E1" transform="scale(0.5 0.5)" d="M1147.84 921.056C1154.8 920.96 1158.29 920.768 1165.16 919.783C1164.09 925.61 1163.76 925.104 1157.79 925.804L1156.98 926.935L1158.2 928.558L1157.8 930.022C1154.97 929.583 1152.12 928.973 1149.31 928.418L1150.31 927.975L1150.42 927.05C1147.48 926.461 1146.7 926.217 1143.88 925.183L1143.93 923.773L1147.84 921.056Z"/><path fill="#ED846F" transform="scale(0.5 0.5)" d="M1000.6 785.882C998.518 775.427 997.333 766.684 997.548 756.073C998.234 722.224 1036.59 708.619 1064.8 706.476C1073.8 705.793 1081.62 707.471 1090.25 708.06L1091.93 708.166C1095.21 709.106 1096.66 710.194 1099.29 709.318C1113.47 707.235 1136.78 721.877 1148.34 729.762C1183.77 753.907 1124.54 769.645 1124.8 785.902L1126.49 787.08C1137.85 784.954 1156.57 763.437 1166.98 760.117C1188.06 753.392 1205.45 788.751 1207.92 804.822C1208.2 806.675 1208.44 808.533 1208.65 810.397L1207.88 815.713C1214.33 824.01 1213.91 824.427 1212.64 834.443C1217.26 871.845 1198.4 906.054 1158.82 907.54C1139.06 908.283 1122.72 909.013 1103.92 900.034C1090.35 893.554 1069.82 884.541 1062.36 870.47C1055.88 858.418 1092.96 834.791 1083.44 824.187C1061.22 799.415 1031.63 858.214 1009.06 810.646C1006.79 813.871 1008.21 812.864 1005.06 814.304C998.796 812.672 995.262 807.412 997.237 801.035L999.329 807.378L999.825 806.331L999.627 804.842C1000.89 805.243 1000.2 805.199 1001.69 804.783C998.643 794.902 997.884 796.904 1000.6 785.882Z"/><path fill="#ED846F" transform="scale(0.5 0.5)" d="M1099.29 709.318C1113.47 707.235 1136.78 721.877 1148.34 729.762C1183.77 753.907 1124.54 769.645 1124.8 785.902L1126.49 787.08C1137.85 784.954 1156.57 763.437 1166.98 760.117C1188.06 753.392 1205.45 788.751 1207.92 804.822C1208.2 806.675 1208.44 808.533 1208.65 810.397C1194.43 819.903 1182.82 811.849 1167.41 808.654C1147.99 804.625 1136.74 822.728 1118.4 813.529C1095.32 801.951 1086.45 782.376 1100.57 759.817C1109.36 745.153 1104.72 724.368 1099.29 709.318Z"/><path fill="#175E62" transform="scale(0.5 0.5)" d="M1091.93 708.166C1095.21 709.106 1096.66 710.194 1099.29 709.318C1104.72 724.368 1109.36 745.153 1100.57 759.817C1086.45 782.376 1095.32 801.951 1118.4 813.529C1136.74 822.728 1147.99 804.625 1167.41 808.654C1182.82 811.849 1194.43 819.903 1208.65 810.397L1207.88 815.713C1214.33 824.01 1213.91 824.427 1212.64 834.443C1212.12 830.248 1212.18 825.769 1209.22 823.023C1205.58 822.475 1200.77 825.702 1196.77 827.493C1182.77 826.133 1170.62 819.092 1157.61 820.201C1148.44 821.49 1139.3 827.373 1129.98 827.457C1105.57 827.678 1074.27 796.658 1083.13 771.402C1086.14 762.832 1091.62 757.133 1092.97 746.675C1094.66 733.512 1092.32 721.431 1091.93 708.166Z"/><path fill="#1A5D61" transform="scale(0.5 0.5)" d="M1000.6 785.882C1002.93 794.659 1005.37 802.303 1009.06 810.646C1006.79 813.871 1008.21 812.864 1005.06 814.304C998.796 812.672 995.262 807.412 997.237 801.035L999.329 807.378L999.825 806.331L999.627 804.842C1000.89 805.243 1000.2 805.199 1001.69 804.783C998.643 794.902 997.884 796.904 1000.6 785.882Z"/><path fill="#1A383D" transform="scale(0.5 0.5)" d="M1365.24 916.439C1372.78 917.946 1390.33 931.204 1399.49 934.65C1453.56 955.003 1516.52 960.617 1539 1023.47C1540.32 1027.16 1540.33 1028.23 1538.68 1031.64C1536.95 1031.65 1534.92 1031.49 1533.16 1031.4C1526.42 1028.13 1520.79 1011.06 1514.08 1002.29C1507.98 994.466 1500.64 987.7 1492.34 982.269C1483.73 976.6 1474.49 971.949 1464.81 968.411C1444.86 961.282 1358.78 943.973 1365.24 916.439Z"/><path fill="#17474A" transform="scale(0.5 0.5)" d="M1426.83 533.767C1430.35 534.5 1431.08 535.694 1431.31 538.899C1429.57 543.319 1427.53 546.518 1423.88 549.661C1383.2 584.733 1340.49 624.558 1283.67 624.224C1280.1 622.226 1280.05 622.916 1278.3 619.902C1278.89 617.971 1279.65 616.844 1281.87 616.446C1301.23 612.977 1318.64 609.362 1336.51 600.735C1361.12 588.85 1380.97 570.388 1402.07 553.385C1410.03 546.966 1418.05 538.953 1426.83 533.767Z"/><path fill="#1A5D61" transform="scale(0.5 0.5)" d="M1491.46 666.716C1494.35 667.567 1494.16 667.48 1496.39 669.525C1497.71 678.309 1485.27 684.805 1478.82 691.138C1443.33 725.959 1429.79 745.777 1413.87 791.713C1408.96 789.655 1407.55 786.219 1408.71 781.059C1419.13 734.737 1455.92 695.439 1491.46 666.716Z"/><path fill="#175E62" transform="scale(0.5 0.5)" d="M1070.77 617.641C1080.14 617.317 1089.67 621.109 1098.69 621.641C1129.01 623.43 1158.86 621.749 1186.55 636.657C1197.54 642.573 1214.95 651.909 1213.53 666.689C1205.64 666.184 1196.88 653.436 1189.64 649.093C1153.83 627.607 1109.31 639.501 1072.62 623.852C1070.57 622.978 1070.84 619.308 1070.77 617.641Z"/><path fill="#1A5D61" fill-opacity="0.98039216" transform="scale(0.5 0.5)" d="M1270.81 725.059C1302.74 740.182 1293.62 807.33 1295.36 835.206C1295.99 845.337 1304.94 861.113 1302.79 869.798C1274.25 855.168 1289.98 790.928 1283.64 765.462C1280.17 751.503 1275.89 741.212 1269.22 728.47C1268.58 727.247 1270.08 725.995 1270.81 725.059Z"/><path fill="#175E62" transform="scale(0.5 0.5)" d="M1246.91 671.938C1248.57 666.191 1251.33 653.742 1257.08 651.399L1259.11 652.695C1260.63 655.436 1261.15 656.01 1261.21 659.245L1261.32 667.014C1266.92 662.616 1273.02 657.194 1278.59 652.561C1281.83 653.127 1286.21 653.468 1288.59 655.407L1289.24 659.035C1282.41 665.747 1277.11 671.214 1270.8 678.401C1278.81 677.882 1283.77 676.439 1290.21 680.858C1292.74 687.211 1279.25 691.268 1274.65 691.975C1266.52 693.228 1247.87 698.692 1244.15 688.093C1243.09 684.722 1245.87 675.76 1246.91 671.938Z"/><path fill="#1A5D61" transform="scale(0.5 0.5)" d="M1246.91 671.938C1248.57 666.191 1251.33 653.742 1257.08 651.399L1259.11 652.695C1260.63 655.436 1261.15 656.01 1261.21 659.245L1261.32 667.014C1261.39 668.064 1261.47 669.114 1261.54 670.165C1257.22 672.785 1252.3 671.362 1246.91 671.938Z"/><path fill="#17474A" transform="scale(0.5 0.5)" d="M934.534 477.435C941.374 494.727 945.389 508.086 958.052 522.029C961.126 525.413 965.542 530.319 965.22 534.719C949.07 544.77 929.058 501.473 927.44 490.248C927.632 485.65 926.819 483.497 927.339 479.032C929.723 476.69 929.934 477.537 934.534 477.435Z"/><path fill="#1A383D" fill-opacity="0.96862745" transform="scale(0.5 0.5)" d="M927.44 490.248C919.744 474.755 915.352 453.782 900.87 442.686C897.725 440.276 892.317 436.592 890.917 433.058L891.9 431.494C894.234 430.964 895.44 431.397 897.664 432.228C916.39 439.224 926.686 460.345 934.534 477.435C929.934 477.537 929.723 476.69 927.339 479.032C926.819 483.497 927.632 485.65 927.44 490.248Z"/><path fill="#1A5D61" transform="scale(0.5 0.5)" d="M1278.59 652.561C1286.62 645.81 1299.59 633.151 1309.71 632.819L1311.59 634.083C1312.46 642.244 1295.33 653.901 1289.24 659.035L1288.59 655.407C1286.21 653.468 1281.83 653.127 1278.59 652.561Z"/><path fill="#17474A" transform="scale(0.5 0.5)" d="M1533.25 916.471C1545.31 913.774 1551.89 913.341 1564 915.065C1609.43 921.528 1619.43 961.409 1613.95 1000.85C1612.58 1010.68 1611.57 1022.47 1612.32 1032.47C1614.56 1060.34 1633.5 1089.13 1615.69 1115.79C1611.26 1122.32 1605.59 1127.91 1598.99 1132.23C1581.69 1141.83 1571.23 1143.15 1551.36 1142.6C1537.31 1158.52 1513.45 1165.01 1494.46 1173.63C1491.79 1174.84 1480.96 1179.47 1478.97 1179.63L1476.95 1175.37C1473.82 1177 1470.05 1176.72 1466.36 1177.11C1463.73 1179.45 1464.8 1179.03 1461.72 1180.12C1462.19 1174.08 1474.56 1173.2 1480.29 1166.18C1477.76 1163.85 1477.69 1164.51 1473.66 1163.75C1479.45 1160.77 1492.7 1154.95 1499.2 1153.32C1602.77 1127.32 1585.46 1003.64 1511.73 954.052C1496.81 944.015 1486.04 939.955 1467.52 933.649C1481.77 931.167 1476.12 922.419 1487.87 920.358C1499.1 922.125 1504.56 920.405 1512.96 921.273C1519.94 919.359 1526.17 917.972 1533.25 916.471ZM1525.64 939.943C1560.56 962.508 1576 997.839 1584.86 1037.31C1592.28 1070.33 1586.58 1097.28 1570.69 1126.77C1574.53 1125.58 1581.89 1123.52 1585.24 1121.87C1626.43 1098.51 1599.13 1061.34 1598.31 1025.82C1597.63 996.149 1610.49 960.443 1580.91 938.885C1567.59 929.183 1550.84 932.821 1536.1 935.927L1525.64 939.943Z"/><path fill="#175E62" transform="scale(0.5 0.5)" d="M1512.96 921.273C1519.94 919.359 1526.17 917.972 1533.25 916.471L1534.42 918.949C1532.84 921.014 1532.24 920.817 1529.64 921.633L1530.08 927.135L1528.98 928.163C1529.31 925.527 1529.01 923.37 1526.57 922.169C1524.81 924.267 1525.45 924.874 1525.35 928.381C1522.09 929.964 1519.56 927.973 1516.43 927.299C1513.65 926.701 1517.6 928.968 1513.21 928.955C1513.41 927.521 1513.62 926.349 1513.89 924.932C1509.67 922.991 1503.21 926.388 1499.29 923.469C1504.26 921.245 1508.27 924.025 1512.96 921.273Z"/><path fill="#1A5D61" transform="scale(0.5 0.5)" d="M456.365 826.049L456.198 832.166C456.131 834.768 455.997 835.024 457.334 837.183C462.697 838.133 462.822 835.585 467.725 834.92C458.331 851.63 444.871 874.544 438.6 892.493C420.305 944.851 414.379 1001.67 429.321 1055.04C434.57 1074.45 442.078 1093.18 451.691 1110.84C475.913 1154.85 525.15 1206.57 567.147 1234.76C564.46 1236.35 555.365 1241.04 552.465 1241.79C544.005 1234.54 534.065 1227.67 525.267 1220.21C502.232 1200.94 481.626 1178.95 463.903 1154.7C459.32 1148.45 454.204 1141.1 449.236 1135.27C451.427 1146.96 455.242 1157.92 459.209 1169.11C479.245 1226.14 495.089 1287.77 480.79 1348.98C476.076 1369.16 462.603 1389.76 459.551 1411.02L459.254 1412.99C459.201 1413.38 459.149 1413.78 459.096 1414.17C458.639 1409.16 459.324 1406.1 456.641 1402.82L456.679 1403.35C453.209 1401.57 450.564 1401.57 446.759 1401.36C451.746 1379.66 467.911 1349.55 469.54 1329.99C478.163 1226.42 421.966 1129.78 407.068 1029.8C397.718 967.065 417.825 876.043 456.365 826.049Z"/><path fill="#1A5D61" transform="scale(0.5 0.5)" d="M1273.57 566.715C1334.28 550.688 1379.36 499.566 1427.09 463.617C1452.59 444.412 1495.43 425.998 1527.42 426.824C1552.86 427.48 1571.98 438.08 1591.46 453.315C1606.23 463.392 1612.73 462.31 1626.3 477.246C1626.77 481.841 1627.56 481.573 1625.58 484.456C1621.88 486.505 1617.46 486.462 1613.12 486.884C1551.57 436.176 1495.97 501.325 1475.26 497.103C1469.24 487.475 1501.49 471.438 1508.01 467.701C1522.38 459.476 1538.39 455.043 1554.41 451.638C1498.94 407.473 1392.48 518.956 1349.48 549.38C1334.62 559.896 1314.41 570.392 1297.28 576.742C1292.35 576.823 1277.66 573.166 1273.53 570.43L1273.57 566.715Z"/><path fill="#175E62" transform="scale(0.5 0.5)" d="M1361.43 1209.92C1364.65 1193.33 1351 1153 1360 1143.81C1364.72 1143.29 1367.53 1144.69 1371.17 1147.99C1381.17 1157.03 1390.33 1165.7 1400.89 1174.16C1435.09 1201.34 1472.27 1224.53 1511.72 1243.29L1509.84 1245.03C1506.13 1248.61 1504.7 1247.88 1499.72 1247.91C1479.11 1241.16 1460.44 1229.48 1441.63 1219.14C1419.09 1265.12 1432.19 1310.24 1463.8 1347.5C1485.97 1373.64 1515.7 1397.54 1517.62 1434.06C1518.82 1454.74 1512.52 1474.53 1499.34 1490.63C1488.05 1486.5 1498.57 1479.43 1491.01 1474.78C1516.71 1431.75 1492.66 1403.53 1462.84 1372.63C1420.65 1328.93 1402.21 1278.9 1424.77 1219.11L1426.51 1216C1426.76 1215.43 1427.53 1212.74 1427.73 1212.06C1426.53 1208.44 1402.07 1191.67 1395.9 1186.84C1391.08 1180.13 1375.48 1168.31 1368.25 1163.55C1368.36 1176.28 1374.52 1234.3 1368.94 1241.58C1363.47 1237.31 1361.95 1217.01 1361.43 1209.92Z"/><path fill="#1A5D61" transform="scale(0.5 0.5)" d="M1426.51 1216C1432.22 1217.84 1435.27 1221.22 1433.85 1227.37L1431.72 1229.46C1425.22 1229.16 1425.24 1224.52 1424.77 1219.11L1426.51 1216Z"/><path fill="#1A5D61" transform="scale(0.5 0.5)" d="M1154.37 1527.67C1161.96 1526.8 1167.58 1528.88 1165.84 1537.7C1107.23 1595.9 1052.66 1617.49 974.746 1641.24L970.564 1641.96C911.711 1661.04 829.49 1667.52 767.635 1661.2C748.591 1659.26 723.788 1653.32 704.888 1648.96C709.854 1648.32 714.534 1648.83 720.153 1648.1C722.552 1646.49 722.327 1646.29 723.527 1643.57C722.797 1640.92 722.721 1640 722.789 1637.25C764.198 1645.84 806.372 1650.64 848.625 1647.27C959.24 1638.46 1072.53 1605.23 1154.37 1527.67Z"/><path fill="#196870" transform="scale(0.5 0.5)" d="M970.564 1641.96C966.837 1641.88 964.365 1642.07 960.788 1640.92C958.07 1638.08 957.299 1637.85 953.576 1636.52L955.908 1634.66C964.771 1633.77 971.387 1631.32 974.746 1641.24L970.564 1641.96Z"/><path fill="#175E62" transform="scale(0.5 0.5)" d="M1185.84 1486.83C1195.71 1474.5 1206.3 1431.73 1202.53 1415.93C1198.62 1399.54 1193.67 1389.86 1193.63 1371.71C1193.54 1332.01 1215.66 1296.37 1258.12 1294.93C1270.14 1294.58 1282.61 1297.73 1291.32 1306.56C1294.56 1309.84 1301.66 1322.47 1296.63 1326.35C1287.94 1326.04 1277.37 1313.81 1268.15 1311.17C1243.13 1304.02 1220.77 1328.01 1212.85 1349.06C1242.36 1353.5 1249.44 1354.19 1276.18 1367.99C1281.54 1371.17 1289.16 1375.43 1294.15 1378.9C1287.6 1379.89 1283.34 1376.45 1279.11 1381.05C1278.78 1388.58 1281.75 1380.67 1281.1 1389.7C1270.08 1382.48 1262.81 1377.82 1250.74 1372.76C1241.66 1369.25 1220.35 1362.79 1211.17 1366.41C1205.55 1373.22 1214.98 1399.55 1216.76 1408.49C1222.11 1435.37 1212.16 1474.27 1196.88 1496.09C1188.71 1510.23 1177.58 1526.26 1165.84 1537.7C1167.58 1528.88 1161.96 1526.8 1154.37 1527.67C1167.03 1515.42 1177.72 1502.51 1185.84 1486.83Z"/><path fill="#17474A" transform="scale(0.5 0.5)" d="M1276.18 1367.99C1281.54 1371.17 1289.16 1375.43 1294.15 1378.9C1287.6 1379.89 1283.34 1376.45 1279.11 1381.05C1278.78 1388.58 1281.75 1380.67 1281.1 1389.7C1270.08 1382.48 1262.81 1377.82 1250.74 1372.76C1255.77 1372.19 1260.12 1374.54 1263.52 1372.97L1262.93 1370.57C1266.02 1369.52 1264.77 1373.47 1271.63 1373.84C1274.75 1371.58 1274.87 1371.78 1276.18 1367.99Z"/><path fill="#1A5D61" transform="scale(0.5 0.5)" d="M999.804 479.164C1014.19 467.452 1036.08 459.098 1050.16 476.271C1051.07 477.408 1051.95 478.574 1052.79 479.767L1053.59 480.845C1061.44 491.634 1063.46 504.238 1069.92 513.838C1099.51 557.807 1163.12 573.001 1213.38 574.365C1233.07 574.358 1245.31 572.873 1264.33 569.172L1273.57 566.715L1273.53 570.43C1277.66 573.166 1292.35 576.823 1297.28 576.742C1286.45 581.29 1271.31 586.836 1259.57 588.215C1254.66 589.017 1249.72 589.948 1244.76 590.284C1241.42 590.712 1238.08 591.085 1234.73 591.401C1180.71 596.307 1098.14 576.581 1062.24 533.022C1050.88 519.24 1049.39 499.671 1034.47 487.776C1026.51 483.259 1018.95 486.539 1012.07 491.467C1009.87 485.297 1006.11 480.699 999.804 479.164Z"/><path fill="#17474A" transform="scale(0.5 0.5)" d="M999.804 479.164C1014.19 467.452 1036.08 459.098 1050.16 476.271C1051.07 477.408 1051.95 478.574 1052.79 479.767C1048.13 479.642 1047.15 479.46 1043.21 476.968C1040.21 478.432 1039.98 479.764 1039.63 483.289C1042.56 484.553 1043.68 484.573 1045.64 486.805L1044.46 488.23C1038.39 487.716 1042.47 485.36 1036.51 485.674L1034.47 487.776C1026.51 483.259 1018.95 486.539 1012.07 491.467C1009.87 485.297 1006.11 480.699 999.804 479.164Z"/><path fill="#17474A" transform="scale(0.5 0.5)" d="M1264.33 569.172L1273.57 566.715L1273.53 570.43C1277.66 573.166 1292.35 576.823 1297.28 576.742C1286.45 581.29 1271.31 586.836 1259.57 588.215L1262.81 581.955C1260.73 579.08 1260.92 578.999 1260.38 575.626C1263.89 573.051 1267.88 573.963 1271.32 571.344L1270.99 570.101C1268.76 570.182 1268.35 570.092 1266.24 569.615L1264.33 569.172Z"/><path fill="#175E62" transform="scale(0.5 0.5)" d="M1213.38 574.365C1233.07 574.358 1245.31 572.873 1264.33 569.172L1266.24 569.615C1268.35 570.092 1268.76 570.182 1270.99 570.101L1271.32 571.344C1267.88 573.963 1263.89 573.051 1260.38 575.626C1260.92 578.999 1260.73 579.08 1262.81 581.955L1259.57 588.215C1254.66 589.017 1249.72 589.948 1244.76 590.284C1248.38 586.874 1252.44 584.021 1253.86 579.487C1253.69 578.657 1253.52 577.827 1253.36 576.997C1246.73 572.267 1219.37 578.398 1213.38 574.365Z"/><path fill="#175E62" transform="scale(0.5 0.5)" d="M798.806 1312.11C881.058 1313.24 954.185 1292.78 1029.94 1261.96L1036.98 1262.64L1037.82 1264.03L1036.97 1265.18C1032.28 1265.66 1033.73 1264.86 1030.52 1267.64C1034.26 1272.58 1036.05 1270.1 1037.07 1276.02C983.376 1298.49 886.136 1328.96 828.826 1327.67C785.858 1327.86 736.098 1323.49 695.176 1309.93L695.946 1308.54C695.594 1304.66 695.067 1302.91 698.435 1300.53C707.821 1303.99 718.248 1304.75 728.101 1302.62C754.765 1308.38 772.032 1309.79 798.806 1312.11Z"/><path fill="#1A5D61" transform="scale(0.5 0.5)" d="M695.176 1309.93L695.946 1308.54C695.594 1304.66 695.067 1302.91 698.435 1300.53C707.821 1303.99 718.248 1304.75 728.101 1302.62C754.765 1308.38 772.032 1309.79 798.806 1312.11C807.095 1317.06 865.144 1312.95 880.419 1317.95C878.662 1321.22 870.21 1320.68 866.818 1320C859.822 1318.6 834.109 1324.73 828.826 1327.67C785.858 1327.86 736.098 1323.49 695.176 1309.93Z"/><path fill="#1A5D61" transform="scale(0.5 0.5)" d="M1281.1 1389.7C1281.75 1380.67 1278.78 1388.58 1279.11 1381.05C1283.34 1376.45 1287.6 1379.89 1294.15 1378.9C1330.27 1401.98 1365.84 1441.51 1394.17 1473.79C1402.47 1483.25 1407.94 1497.26 1418.16 1505.29C1444.02 1524.37 1476.89 1494.23 1491.01 1474.78C1498.57 1479.43 1488.05 1486.5 1499.34 1490.63C1482.61 1509.95 1472.97 1519.79 1446.74 1525.08C1432.89 1527.88 1419.11 1525.13 1407.27 1516.99C1391.51 1506.14 1382.05 1484.57 1368.78 1470.45C1341.85 1441.8 1313.34 1412.15 1281.1 1389.7Z"/><path fill="#175E62" transform="scale(0.5 0.5)" d="M446.759 1401.36C450.564 1401.57 453.209 1401.57 456.679 1403.35L456.641 1402.82C459.324 1406.1 458.639 1409.16 459.096 1414.17C459.463 1421.56 459.964 1430.53 463.005 1437.53C481.289 1479.62 514.799 1518.47 548.681 1548.93C564.52 1563.18 582.634 1576.57 600.509 1587.61C612.243 1594.85 625.644 1600.56 637.161 1607.15C631.24 1607.33 627.065 1607.05 622.896 1611.02C622.577 1614.09 622.989 1615.9 623.982 1618.82C560.13 1587.46 456.481 1500.83 444.334 1422.88C443.398 1416.87 445.381 1407.5 446.759 1401.36Z"/><path fill="#175E62" transform="scale(0.5 0.5)" d="M456.365 826.049C494.221 764.649 594.004 692.2 663.727 671.098L664.157 671.921C665.996 675.513 666.047 675.763 666.74 679.678C669.412 682.584 670.025 682.015 674.961 682.285C609.775 706.026 543.73 749.978 495.392 800.094C484.47 811.417 477.131 822.92 467.725 834.92C462.822 835.585 462.697 838.133 457.334 837.183C455.997 835.024 456.131 834.768 456.198 832.166L456.365 826.049Z"/><path fill="#1A5D61" transform="scale(0.5 0.5)" d="M940.957 422.743C954.507 438.029 963.022 458.126 972.025 476.321C974.645 481.617 978.14 490.014 981.158 494.809C988.459 490.603 990.075 488.659 995.977 482.694L999.804 479.164C1006.11 480.699 1009.87 485.297 1012.07 491.467C1009.17 494.514 1003.5 500.801 1000.47 503.246L988.654 509.577C986.098 526.441 1021.93 538.002 1024.03 548.647C1014.23 564.29 983.994 534.966 978.032 525.693C976.72 523.652 973.232 517.229 972.308 514.976C961.159 487.815 948.061 464.234 932.5 439.424C934.247 432.5 931.575 430.59 936.592 422.955L940.957 422.743Z"/><path fill="#175E62" transform="scale(0.5 0.5)" d="M995.977 482.694L999.804 479.164C1006.11 480.699 1009.87 485.297 1012.07 491.467C1009.17 494.514 1003.5 500.801 1000.47 503.246C998.997 492.23 993.682 498.538 1002.11 486.035C1000.71 484.66 997.956 483.803 995.977 482.694Z"/><path fill="#17474A" transform="scale(0.5 0.5)" d="M988.654 509.577C988.615 506.655 988.245 506.401 987.297 503.59C989.67 499.811 998.547 487.989 1002.11 486.035C993.682 498.538 998.997 492.23 1000.47 503.246L988.654 509.577Z"/><path fill="#17474A" transform="scale(0.5 0.5)" d="M1636.39 557.274L1637.7 559.16L1643.76 558.31C1649.1 562.384 1646.47 566.511 1646.72 572.293C1633.01 611.368 1610.35 632.01 1576.45 655.187C1576.14 652.054 1573.38 647.097 1571.65 644.334C1569.9 641.532 1568.12 642.135 1564.79 641.892C1595.23 620.902 1623.71 592.551 1636.39 557.274Z"/><path fill="#1A5D61" transform="scale(0.5 0.5)" d="M1477.21 724.078C1477.44 727.273 1477.31 731.175 1479.03 733.697L1480.93 733.755C1483.04 731.42 1481.74 732.154 1485.1 731.751C1484.62 735.938 1484.26 737.001 1485.21 740.986C1467.34 761.598 1451.03 787.067 1442.36 813.029C1439.13 822.713 1437.82 831.375 1435.15 840.638L1432.1 842.299C1430.23 845.658 1428.99 848.895 1424.83 849.027C1419.79 842.908 1422.14 840.741 1420.78 833.547L1420.61 832.661C1421.74 830.27 1428.24 807.092 1430.39 801.488C1442.84 769.048 1456.42 750.894 1477.21 724.078Z"/><path fill="#175E62" transform="scale(0.5 0.5)" d="M637.161 1607.15C646.072 1611.33 653.489 1614.71 662.726 1618.29C678.644 1624.21 694.767 1629.58 711.063 1634.36C714.568 1635.14 719.514 1636.07 722.789 1637.25C722.721 1640 722.797 1640.92 723.527 1643.57C722.327 1646.29 722.552 1646.49 720.153 1648.1C714.534 1648.83 709.854 1648.32 704.888 1648.96L694.197 1646.16C678.749 1641.62 652.888 1633.39 638.957 1626.03C634.367 1624.52 628.402 1621.12 623.982 1618.82C622.989 1615.9 622.577 1614.09 622.896 1611.02C627.065 1607.05 631.24 1607.33 637.161 1607.15Z"/><path fill="#1A5D61" transform="scale(0.5 0.5)" d="M637.161 1607.15C646.072 1611.33 653.489 1614.71 662.726 1618.29C662.157 1619.91 661.599 1622.94 660.156 1623.41C653.984 1625.4 645.561 1625.28 638.957 1626.03C634.367 1624.52 628.402 1621.12 623.982 1618.82C622.989 1615.9 622.577 1614.09 622.896 1611.02C627.065 1607.05 631.24 1607.33 637.161 1607.15Z"/><path fill="#196870" transform="scale(0.5 0.5)" d="M711.063 1634.36C714.568 1635.14 719.514 1636.07 722.789 1637.25C722.721 1640 722.797 1640.92 723.527 1643.57C722.327 1646.29 722.552 1646.49 720.153 1648.1C714.534 1648.83 709.854 1648.32 704.888 1648.96L694.197 1646.16C692.208 1641.56 691.725 1642.33 692.216 1638.04C696.612 1633.06 703.987 1636.77 711.063 1634.36Z"/><path fill="#1A5D61" transform="scale(0.5 0.5)" d="M1405.68 912.496C1382.98 905.205 1355.62 867.518 1355.94 843.606C1356 838.369 1360.99 831.423 1366.99 833.145C1374.48 835.298 1371.01 845.571 1372.48 851.439C1374.26 858.671 1378.49 865.065 1382.3 871.223L1388.55 878.683C1399.44 888.766 1405.89 893.302 1419.8 898.881C1422.03 907.23 1421.91 906.081 1416.78 912.716C1411.8 911.887 1410.39 911.279 1405.68 912.496Z"/><path fill="#17474A" transform="scale(0.5 0.5)" d="M1388.55 878.683C1386.8 879.589 1386.63 879.767 1385.03 880.912C1384.68 884.109 1385.7 885.241 1387.24 888.11L1387.83 889.19L1386.88 890.227C1383.06 886.878 1375.59 880.363 1376.19 875.202C1379.56 871.51 1377.59 872.77 1382.3 871.223L1388.55 878.683Z"/><path fill="#17474A" transform="scale(0.5 0.5)" d="M841.961 421.863C844.141 418.883 846.587 416.105 849.267 413.564C869.587 394.678 902.557 395.13 925.431 408.737C931.963 412.623 936.027 417.192 940.957 422.743L936.592 422.955C931.575 430.59 934.247 432.5 932.5 439.424C907.505 409.506 872.345 397.627 849.575 438.38C848.531 434.556 849.934 433.853 847.141 430.695L846.821 431.384C843.345 427.183 844.998 425.989 841.961 421.863Z"/><path fill="#17474A" transform="scale(0.5 0.5)" d="M1480.96 719.827C1494.66 703.934 1528.97 671.496 1545.65 658.047C1545.39 673.749 1536.47 670.15 1540.38 681.662L1542.16 683.024C1539.01 686.468 1534.83 690.057 1531.26 693.106C1514.18 707.674 1499.48 723.675 1485.21 740.986C1484.26 737.001 1484.62 735.938 1485.1 731.751C1481.74 732.154 1483.04 731.42 1480.93 733.755L1479.03 733.697C1477.31 731.175 1477.44 727.273 1477.21 724.078L1480.96 719.827Z"/><path fill="#175E62" transform="scale(0.5 0.5)" d="M1480.96 719.827C1484.64 720.422 1484.67 719.791 1486.93 721.922C1488.01 728.869 1484.76 725.776 1485.56 731.033L1485.1 731.751C1481.74 732.154 1483.04 731.42 1480.93 733.755L1479.03 733.697C1477.31 731.175 1477.44 727.273 1477.21 724.078L1480.96 719.827Z"/><path fill="#17474A" transform="scale(0.5 0.5)" d="M1420.61 832.661L1420.78 833.547C1422.14 840.741 1419.79 842.908 1424.83 849.027C1428.99 848.895 1430.23 845.658 1432.1 842.299L1435.15 840.638C1433.25 854.445 1429.03 896.77 1442.06 906.39C1438.77 907.985 1438.98 907.827 1437.12 910.977C1436.76 914.211 1438.18 916.379 1439.54 919.427C1438.38 923.488 1439.52 921.873 1435.7 924.238L1433.62 923.099C1423.49 920.077 1415.15 917.159 1405.68 912.496C1410.39 911.279 1411.8 911.887 1416.78 912.716C1421.91 906.081 1422.03 907.23 1419.8 898.881C1414.08 872.746 1415.14 858.708 1420.61 832.661Z"/><path fill="#175E62" transform="scale(0.5 0.5)" d="M1416.78 912.716L1418.48 912.355C1421.21 908.568 1419.84 909.403 1423.78 907.825C1429.63 909.557 1431.6 912.617 1435.01 917.488L1435.19 921.371L1433.62 923.099C1423.49 920.077 1415.15 917.159 1405.68 912.496C1410.39 911.279 1411.8 911.887 1416.78 912.716Z"/><path fill="#175E62" transform="scale(0.5 0.5)" d="M1158.79 1188.1C1159.59 1192.06 1159.39 1193.24 1158.82 1197.28L1159.66 1198.72C1164.3 1199.29 1164.69 1198.5 1168.74 1198.23C1147.36 1218.8 1122.79 1235.77 1095.98 1248.5L1090 1248.65C1084.8 1245.82 1081.96 1244.24 1082.3 1238.3C1109.95 1224.47 1135.96 1209.16 1158.79 1188.1Z"/><path fill="#1A5D61" transform="scale(0.5 0.5)" d="M1091.66 1235.39C1096.09 1235.54 1095.75 1235.2 1098.43 1238.25C1098.96 1241.73 1098.84 1241.5 1097.35 1244.75C1094.31 1244.26 1092.71 1244.34 1090.44 1242.29C1089.73 1238.43 1089.96 1239.62 1091.66 1235.39Z"/><path fill="#AAE1E1" fill-opacity="0.3137255" transform="scale(0.5 0.5)" d="M1273.78 1132.92C1278.73 1129.09 1282.9 1125.58 1287.56 1121.67C1292.65 1117.39 1299.81 1106.07 1303.62 1104.75C1307.31 1107.45 1311.13 1115.85 1313.44 1120.31C1329.66 1151.9 1340.74 1185.88 1346.27 1220.96C1347.58 1229.07 1348.47 1255.42 1352.53 1258.74C1357.34 1256.84 1357.58 1246.08 1357.63 1241.4C1357.96 1234.63 1356.21 1212 1359.45 1208.53L1361.43 1209.92C1361.95 1217.01 1363.47 1237.31 1368.94 1241.58C1374.52 1234.3 1368.36 1176.28 1368.25 1163.55C1375.48 1168.31 1391.08 1180.13 1395.9 1186.84C1387.77 1183.08 1379.35 1172.84 1370.29 1167.75C1371.31 1183.6 1377.11 1232.63 1370.44 1244.71C1361.37 1241.51 1362.29 1227.94 1359.98 1218.98C1359.89 1231.17 1359.83 1245.79 1357.24 1257.59L1355.34 1260.35C1352.48 1261.23 1353.93 1261.21 1350.87 1260.02C1345.71 1253.47 1345.96 1223.42 1342.68 1213.2C1340.57 1206.64 1336.89 1189.77 1335.5 1182.37C1333.25 1170.35 1310.9 1112.12 1302.99 1107.63C1299.03 1110.52 1295.99 1116.75 1292.65 1120.51C1290.35 1123.1 1278.39 1130.9 1277.52 1132.98C1270.48 1151.35 1275.06 1164.54 1260.71 1180.79C1250.1 1192.8 1223.69 1216.42 1207.59 1201.57C1208.95 1201.89 1210.3 1202.19 1211.66 1202.48C1239.86 1208.48 1265.55 1178.59 1270.87 1153.04C1272.39 1145.68 1273 1140.44 1273.78 1132.92Z"/><path fill="#1A5D61" transform="scale(0.5 0.5)" d="M1082.3 1238.3C1081.96 1244.24 1084.8 1245.82 1090 1248.65L1095.98 1248.5C1076.98 1258.59 1057.27 1268.49 1037.07 1276.02C1036.05 1270.1 1034.26 1272.58 1030.52 1267.64C1033.73 1264.86 1032.28 1265.66 1036.97 1265.18L1037.82 1264.03L1036.98 1262.64L1029.94 1261.96C1046.74 1253.94 1065.2 1246.1 1082.3 1238.3Z"/><path fill="#1A5D61" transform="scale(0.5 0.5)" d="M616.217 1264.18C632.02 1270.57 646.399 1280.06 663.692 1284.41C661.867 1288.27 660.725 1292.13 657.105 1294.1C654.098 1294.45 652.149 1294.75 649.18 1295.33C632.783 1289.34 616.98 1281.83 601.975 1272.91C602.89 1264.28 609.058 1264.11 616.217 1264.18Z"/><path fill="#1A5D61" transform="scale(0.5 0.5)" d="M1442.06 906.39C1447.99 907.194 1479.06 917.705 1487.87 920.358C1476.12 922.419 1481.77 931.167 1467.52 933.649C1459.2 931.842 1441.7 924.53 1435.7 924.238C1439.52 921.873 1438.38 923.488 1439.54 919.427C1438.18 916.379 1436.76 914.211 1437.12 910.977C1438.98 907.827 1438.77 907.985 1442.06 906.39Z"/><path fill="#175E62" transform="scale(0.5 0.5)" d="M1642.78 502.746C1655.81 526.282 1657.37 547.717 1646.72 572.293C1646.47 566.511 1649.1 562.384 1643.76 558.31L1637.7 559.16L1636.39 557.274C1639.66 542.488 1638.61 532.764 1634.34 518.082L1636.75 515.86C1642.63 510.514 1642.59 510.589 1642.78 502.746Z"/><path fill="#175E62" transform="scale(0.5 0.5)" d="M649.18 1295.33C652.149 1294.75 654.098 1294.45 657.105 1294.1C660.725 1292.13 661.867 1288.27 663.692 1284.41C684.715 1290.86 706.701 1297.96 728.101 1302.62C718.248 1304.75 707.821 1303.99 698.435 1300.53C695.067 1302.91 695.594 1304.66 695.946 1308.54L695.176 1309.93C679.271 1306.03 664.572 1300.8 649.18 1295.33Z"/><path fill="#175E62" transform="scale(0.5 0.5)" d="M1545.65 658.047C1548.27 655.237 1560.69 645.65 1564.79 641.892C1568.12 642.135 1569.9 641.532 1571.65 644.334C1573.38 647.097 1576.14 652.054 1576.45 655.187C1566.43 663.398 1552.26 675.728 1542.16 683.024L1540.38 681.662C1536.47 670.15 1545.39 673.749 1545.65 658.047Z"/><path fill="#17474A" transform="scale(0.5 0.5)" d="M1626.3 477.246C1632.01 484.598 1639.14 494.091 1642.78 502.746C1642.59 510.589 1642.63 510.514 1636.75 515.86L1634.34 518.082C1627.47 502.906 1624.76 498.754 1613.12 486.884C1617.46 486.462 1621.88 486.505 1625.58 484.456C1627.56 481.573 1626.77 481.841 1626.3 477.246Z"/><path fill="#175E62" transform="scale(0.5 0.5)" d="M567.147 1234.76C573.397 1238.84 579.698 1242.83 586.051 1246.74C585.575 1249.35 584.941 1256.56 584.182 1258.48C582.114 1258.58 580.047 1258.7 577.981 1258.84C569.285 1253.27 560.764 1247.95 552.465 1241.79C555.365 1241.04 564.46 1236.35 567.147 1234.76Z"/><path fill="#1A5D61" transform="scale(0.5 0.5)" d="M586.051 1246.74C594.077 1251.33 608.943 1259.26 616.217 1264.18C609.058 1264.11 602.89 1264.28 601.975 1272.91C594.567 1269.47 585.034 1263.28 577.981 1258.84C580.047 1258.7 582.114 1258.58 584.182 1258.48C584.941 1256.56 585.575 1249.35 586.051 1246.74Z"/><path fill="#BBE1E1" fill-opacity="0.094117649" transform="scale(0.5 0.5)" d="M679.844 582.097C681.756 580.51 683.108 578.961 685.302 577.939L683.91 578.003L682.779 579.18L683.909 577.114C685.118 577.528 686.095 577.235 687.558 577.12L688.29 576.08L689.356 576.84L688.57 576.998L689.234 576.369C685.165 575.017 680.535 575.116 675.441 573.354C672.965 570.293 673.703 571.999 673.243 568.008C675.016 564.519 673.785 565.975 677.365 563.754C676.199 568.008 675.761 567.013 677.082 570.322C682.191 573.848 702.949 574.526 708.961 573.881C712.566 574.466 716.63 574.817 719.749 576.528L718.983 577.643L717.556 577.876C706.105 577.83 691.161 579.781 679.844 582.097Z"/><path fill="#BBE1E1" fill-opacity="0.019607844" transform="scale(0.5 0.5)" d="M459.209 1169.11C455.242 1157.92 451.427 1146.96 449.236 1135.27C454.204 1141.1 459.32 1148.45 463.903 1154.7C457.157 1156.83 459.438 1162.09 459.209 1169.11Z"/><path fill="#AAE1E1" fill-opacity="0.13333334" transform="scale(0.5 0.5)" d="M1359.98 1218.98C1362.29 1227.94 1361.37 1241.51 1370.44 1244.71C1366.58 1245.55 1368.38 1245.75 1364.85 1244.21C1362.47 1240.66 1362.34 1239.24 1361.16 1235.02C1360.76 1240.98 1360.63 1252.84 1357.24 1257.59C1359.83 1245.79 1359.89 1231.17 1359.98 1218.98Z"/></svg>