<?xml version="1.0" encoding="utf-8" ?><svg xmlns="http://www.w3.org/2000/svg" xmlns:xlink="http://www.w3.org/1999/xlink" width="1024" height="1024" viewBox="0 0 1024 1024"><path fill="#010809" transform="scale(0.5 0.5)" d="M559.062 763.279C578.829 729.565 596.573 713.902 622.701 685.207L690.715 610.052C714.876 583.091 739.175 551.974 765.853 527.675C777.434 517.128 799.088 506.47 814.361 503.091C846.635 495.951 889.263 498.25 923.31 498.275L1052.63 498.293C1097.24 498.129 1141.86 498.198 1186.47 498.5C1231.78 498.687 1269.77 493.286 1310.25 517.39C1338.84 534.306 1359.41 562.014 1367.34 594.269C1374.42 622.441 1372.25 691.321 1372.27 723.415L1372.3 919.834L1372.38 1065.8C1372.42 1088.96 1373.12 1113.16 1372.64 1135.97C1372.09 1161.82 1347.79 1189.1 1323.02 1194.74C1318.83 1195.69 1311.76 1195.3 1308.85 1197.29C1282.81 1228.76 1258.37 1224.09 1226.9 1205.49L1226.77 1206.6C1224.55 1225.57 1223.95 1253.53 1222.88 1273.04L1216.62 1378.66L1202.25 1640.53L1197.22 1729C1196.13 1750.17 1196.38 1774.41 1191.35 1794.5C1184.02 1823.82 1158.42 1843.36 1130 1850.07C1129.4 1850.21 1128.22 1851.45 1127.83 1852.05C1120.02 1862.83 1105.86 1870.42 1092.85 1872.8C1054.07 1879.87 1021.3 1859.97 1014.1 1820.21C1012.39 1814.72 1012.46 1811.88 1010.09 1805.63C996.453 1823.91 991.517 1834.63 968.076 1843.29C966.215 1843.97 950.301 1849.89 949.008 1850.54C947.198 1853.09 945.237 1855.52 943.133 1857.83C912.901 1891.04 840.61 1871.92 835.082 1824.87C832.798 1805.43 831.44 1786.72 830.074 1767.19L822.108 1637.64C817.717 1567.76 813.726 1497.86 810.136 1427.93C805.846 1354.32 801.301 1280.16 798.38 1206.5C796.59 1161.36 798.266 1115.12 797.374 1069.73C783.48 1067.34 771.962 1067.69 759.87 1057.15C744.461 1043.73 730.301 1028.78 714.837 1015.02L601.626 912.921C589.753 902.015 563.804 879.933 554.976 868.707C546.215 857.511 540.664 844.143 538.919 830.034C535.6 804.832 544.065 783.044 559.062 763.279ZM1197.17 754.518C1185.47 744.1 1171.43 757.112 1171.06 771.085C1170.67 785.702 1170.85 800.032 1170.76 814.625C1170.62 851.406 1170.67 888.187 1170.93 924.967C1171.09 997.578 1171.08 1070.19 1171.2 1142.8C1171.3 1205.08 1166.49 1267.83 1162.71 1330L1153.35 1493.7L1141.04 1727.68C1140.4 1744.03 1139.61 1760.37 1138.7 1776.7C1138.29 1783.54 1135.42 1808.12 1139.27 1812.95C1151.91 1804.86 1161.39 1794.26 1162.92 1778.72C1165.05 1757.05 1165.91 1735.2 1167.13 1713.45L1174.52 1571.36C1183.33 1423.84 1193.3 1275.84 1197.57 1128.12C1200.27 1034.81 1196.49 939.943 1197.99 846.451C1198.48 816.308 1198.38 784.609 1197.17 754.518ZM702.54 814.858L697.445 818.926C691.491 826.41 687.559 836.791 694.37 844.614C708.119 860.406 724.678 876.216 739.405 890.962L772.846 924.206C777.952 929.246 789.504 941.589 795.308 944.412C798.856 941.129 797.085 918.754 797.362 912.75C796.424 905.885 717.454 830.54 705.691 817.209L702.54 814.858ZM1202.67 530.976C1213.09 534.909 1223.88 537.448 1234.28 541.612C1258.63 551.361 1281.48 567.801 1295.56 590.265C1304.39 604.35 1311.31 620.322 1313.26 636.922C1315.07 653.768 1314.85 670.982 1315.05 687.916C1315.42 714.202 1315.61 740.49 1315.63 766.779L1314.46 1036.83L1314.62 1120.63C1314.67 1132.51 1314.22 1152.45 1315.12 1163.83C1320.97 1164.16 1330.64 1157.8 1334.12 1152.98C1344.69 1138.32 1341.73 1117.99 1341.67 1100.34L1341.67 1042.08L1341.3 837.127L1341.43 691.767C1341.47 668.535 1343.18 639.072 1340.41 617.074C1333.32 560.84 1284.57 524.879 1229 529.871C1220.13 530.668 1211.99 529.609 1202.67 530.976ZM796.545 863.912C798.889 859.156 798.769 746.746 797.437 736.129C782.086 747.124 746.4 785.2 730.502 800.491C751.917 820.807 775.096 844.4 796.545 863.912ZM959.93 1789.35C959.842 1793.6 959.076 1810.12 960.164 1813.08C990.098 1799.7 987.871 1769.59 988.81 1742.36L990.658 1683.3L996.878 1508.95C998.687 1459.87 1000.44 1408.99 1003.06 1359.97C1004.62 1334.09 1005.75 1308.18 1006.45 1282.25C1006.86 1269.44 1007.74 1253.83 1007.12 1241.22C1002.15 1234.89 995.689 1231.9 988.219 1236.88C984.346 1239.46 981.954 1245.12 981.419 1249.67C980.428 1270.77 979.697 1292.41 978.867 1313.5L973.617 1446.73L964.862 1673.81C963.306 1712.13 960.8 1751.16 959.93 1789.35Z"/><path fill="#0B8DA3" transform="scale(0.5 0.5)" d="M797.374 1069.73C783.48 1067.34 771.962 1067.69 759.87 1057.15C744.461 1043.73 730.301 1028.78 714.837 1015.02L601.626 912.921C589.753 902.015 563.804 879.933 554.976 868.707C546.215 857.511 540.664 844.143 538.919 830.034C535.6 804.832 544.065 783.044 559.062 763.279L558.981 764.154C556.42 789.586 550.611 805.031 562.105 830.689C577.419 864.876 616.351 889.151 643.044 915.129C665.595 937.077 690.335 957.81 713.6 978.799L763.73 1024.56C784.287 1043.13 791.371 1052.36 820.306 1056.16C821.594 1093.5 820.174 1131.11 821.654 1169.67C828.433 1313.35 836.465 1456.96 845.751 1600.49L853.207 1726.12C854.318 1745.46 854.173 1770.13 857.98 1788.63C861.125 1804.59 869.273 1819.14 881.241 1830.17C900.119 1847.55 923.918 1853.07 949.008 1850.54C947.198 1853.09 945.237 1855.52 943.133 1857.83C912.901 1891.04 840.61 1871.92 835.082 1824.87C832.798 1805.43 831.44 1786.72 830.074 1767.19L822.108 1637.64C817.717 1567.76 813.726 1497.86 810.136 1427.93C805.846 1354.32 801.301 1280.16 798.38 1206.5C796.59 1161.36 798.266 1115.12 797.374 1069.73Z"/><path fill="#0B8DA3" transform="scale(0.5 0.5)" d="M1014.1 1820.21C1014.31 1817.08 1014.12 1802.26 1014.27 1801.68C1016.61 1792.19 1018.33 1789.05 1019.53 1778.97C1022.35 1755.11 1020.5 1675.96 1026.36 1657.65L1026.64 1659.4C1030.18 1681.92 1030.07 1712.43 1030.64 1735.14C1031.63 1774 1031.18 1811.78 1065.84 1837.19C1078.87 1846.74 1098.34 1853.09 1114.53 1850.94C1118.88 1850.75 1124.42 1849.84 1127.83 1852.05C1120.02 1862.83 1105.86 1870.42 1092.85 1872.8C1054.07 1879.87 1021.3 1859.97 1014.1 1820.21Z"/><path fill="#0B8DA3" transform="scale(0.5 0.5)" d="M1229.89 1132.66C1233.97 1127.98 1228.76 1038.42 1233.21 1021.9C1236.3 1037.76 1238.72 1110.42 1241.98 1116.26C1244.12 1139.76 1244.19 1162.34 1264.1 1179.97C1271.35 1186.39 1284.75 1193.06 1294.37 1194.6C1298.28 1195.23 1305.51 1196.05 1308.85 1197.29C1282.81 1228.76 1258.37 1224.09 1226.9 1205.49C1226.54 1187.65 1228.9 1151.33 1229.89 1132.66Z"/><path fill="#3C757B" transform="scale(0.5 0.5)" d="M1010.09 1805.63L1010.44 1804.77C1013.81 1796.1 1016.08 1787.03 1017.21 1777.79C1019.07 1763.44 1019.27 1734.02 1019.87 1718.37L1024.09 1608.35C1024.26 1603.05 1024.53 1575.26 1025.71 1572.48C1027.24 1575.34 1027.68 1599.13 1028.01 1604.67C1030.06 1639.41 1031.65 1674.18 1032.77 1708.96C1035.36 1777.71 1027.62 1840.09 1114.53 1850.94C1098.34 1853.09 1078.87 1846.74 1065.84 1837.19C1031.18 1811.78 1031.63 1774 1030.64 1735.14C1030.07 1712.43 1030.18 1681.92 1026.64 1659.4L1026.36 1657.65C1020.5 1675.96 1022.35 1755.11 1019.53 1778.97C1018.33 1789.05 1016.61 1792.19 1014.27 1801.68C1014.12 1802.26 1014.31 1817.08 1014.1 1820.21C1012.39 1814.72 1012.46 1811.88 1010.09 1805.63Z"/><path fill="#3C757B" transform="scale(0.5 0.5)" d="M1229.89 1132.66C1228.99 1127.61 1229.47 1102.54 1229.51 1096.6L1229.76 1024.93L1229.91 950.9C1229.95 945.68 1230.07 940.94 1229.67 935.722C1229.33 931.365 1230.58 926.307 1230.72 921.533C1231.43 923.725 1232.43 947.508 1232.5 951.574C1233.51 1005.51 1242.5 1062.6 1241.98 1116.26C1238.72 1110.42 1236.3 1037.76 1233.21 1021.9C1228.76 1038.42 1233.97 1127.98 1229.89 1132.66Z"/><path fill="#0B8DA3" transform="scale(0.5 0.5)" d="M797.362 912.75C803.041 913.732 817.782 931.638 822.894 936.449C841.947 954.384 878.435 984.543 852.392 1012.83C845.871 1019.95 836.732 1024.11 827.079 1024.35C822.255 1024.49 813.112 1023.35 809.286 1020.47C789.343 1005.46 768.547 985.246 749.803 968.61L641.903 871.596C618.858 850.505 586.7 829.945 586.608 795.472C586.538 769.115 604.858 752.125 621.042 733.911L669.39 680.305L740.939 600.829C764.243 574.773 786.748 541.715 823.157 533.547C840.273 529.707 861.433 530.763 879.17 530.808L940.639 530.883C1027.08 530.946 1116.4 531.974 1202.67 530.976C1213.09 534.909 1223.88 537.448 1234.28 541.612C1258.63 551.361 1281.48 567.801 1295.56 590.265C1304.39 604.35 1311.31 620.322 1313.26 636.922C1315.07 653.768 1314.85 670.982 1315.05 687.916C1315.42 714.202 1315.61 740.49 1315.63 766.779L1314.46 1036.83L1314.62 1120.63C1314.67 1132.51 1314.22 1152.45 1315.12 1163.83L1314.24 1163.84C1272.38 1164.31 1276.19 1136.27 1273.51 1104.52C1272.11 1087.89 1271.52 1070.98 1270.51 1054.31L1256.22 820.749L1252.24 747.817C1251.84 741.163 1250.94 720.584 1249.68 714.556C1248.56 709.214 1245.81 704.352 1241.81 700.636C1236.61 695.918 1229.74 693.491 1222.73 693.903C1193.28 695.64 1195.6 733.352 1197.17 754.518C1185.47 744.1 1171.43 757.112 1171.06 771.085C1170.67 785.702 1170.85 800.032 1170.76 814.625C1170.62 851.406 1170.67 888.187 1170.93 924.967C1171.09 997.578 1171.08 1070.19 1171.2 1142.8C1171.3 1205.08 1166.49 1267.83 1162.71 1330L1153.35 1493.7L1141.04 1727.68C1140.4 1744.03 1139.61 1760.37 1138.7 1776.7C1138.29 1783.54 1135.42 1808.12 1139.27 1812.95C1129.79 1822.22 1104.14 1819.39 1093.12 1813.16C1061.24 1795.15 1067.09 1764.82 1065.26 1734.01C1063.8 1709.59 1063.71 1685.41 1062.53 1661.2L1044.87 1302.09C1043.44 1272.58 1042.81 1233.66 1039.78 1204.06C1039.64 1200.97 1032 1193.81 1029.26 1193.27C1002.48 1187.95 1008.93 1226.46 1007.31 1239.73L1007.12 1241.22C1002.15 1234.89 995.689 1231.9 988.219 1236.88C984.346 1239.46 981.954 1245.12 981.419 1249.67C980.428 1270.77 979.697 1292.41 978.867 1313.5L973.617 1446.73L964.862 1673.81C963.306 1712.13 960.8 1751.16 959.93 1789.35C959.842 1793.6 959.076 1810.12 960.164 1813.08C946.049 1821.41 922.966 1820.94 909.452 1811.67C901.986 1806.56 890.786 1793.94 889.581 1784.46C886.245 1758.21 885.342 1731.04 883.653 1704.54L873.444 1528.59C867.318 1415.56 857.906 1298.69 853.989 1186.14C852.583 1140.85 852.137 1095.53 852.649 1050.21C864.625 1044.94 871.903 1040.28 879.836 1029.8C899.055 1004.41 897.518 966.819 875.135 943.812C867.804 936.277 860.031 929.152 853.144 921.169C852.372 903.817 852.868 882.671 852.848 865.111L852.877 759.926C852.892 739.701 853.402 717.887 852.268 697.724C851.944 691.957 849.799 686.901 845.839 682.579C840.712 677.044 833.524 673.877 825.98 673.829C809.511 673.714 792.352 696.202 780.844 707.483C758.864 728.686 737.13 750.143 715.646 771.848C689.761 794.939 706.626 806.837 702.54 814.858L697.445 818.926C691.491 826.41 687.559 836.791 694.37 844.614C708.119 860.406 724.678 876.216 739.405 890.962L772.846 924.206C777.952 929.246 789.504 941.589 795.308 944.412C798.856 941.129 797.085 918.754 797.362 912.75Z"/><path fill="#0B8DA3" transform="scale(0.5 0.5)" d="M820.331 713.177L820.339 888.205C815.629 883.756 798.97 868.629 796.545 863.912C798.889 859.156 798.769 746.746 797.437 736.129C803.779 728.737 813.271 720.608 820.331 713.177Z"/><path fill="#010809" transform="scale(0.5 0.5)" d="M895.438 263.537C916.798 200.321 979.009 160.253 1045.4 166.954C1111.79 173.655 1164.74 225.346 1173.04 291.555C1181.33 357.765 1142.78 420.923 1080.09 443.799C1058.13 467.223 1030.2 484.276 997.725 487.129C963.252 489.944 929.087 478.832 902.865 456.276C851.058 412.326 843.815 331.773 883.684 277.84C887.306 272.94 891.466 268.164 895.438 263.537ZM1115.75 380.768C1116.34 379.554 1122.11 372.515 1123.59 370.253C1130.85 359.133 1135.86 349.619 1139.26 336.766C1146.71 308.461 1142.45 278.35 1127.45 253.219C1106.92 218.118 1070.6 195.184 1029.33 197.143C1016.97 197.73 995.573 201.469 984.902 207.81C996.327 209.521 1008.04 209.847 1019.26 212.466C1046.43 218.811 1073.74 237.645 1090.35 259.841C1112.1 288.894 1119.58 326.567 1114.56 362.145C1113.63 368.722 1110.34 375.916 1110.73 381.457L1111.84 382.491L1115.75 380.768Z"/><path fill="#0B8DA3" transform="scale(0.5 0.5)" d="M895.438 263.537C877.818 315.684 891.664 373.314 931.051 411.764C970.438 450.214 1028.39 462.669 1080.09 443.799C1058.13 467.223 1030.2 484.276 997.725 487.129C963.252 489.944 929.087 478.832 902.865 456.276C851.058 412.326 843.815 331.773 883.684 277.84C887.306 272.94 891.466 268.164 895.438 263.537Z"/><path fill="#0B8DA3" transform="scale(0.5 0.5)" d="M1115.75 380.768C1109 393.054 1084 407.82 1071.1 413.128C1045 424.02 1015.61 423.909 989.594 412.821C961.763 401.301 939.722 379.09 928.418 351.171C917.15 323.863 917.305 293.178 928.847 265.985C939.251 241.737 959.948 217.704 984.902 207.81C996.327 209.521 1008.04 209.847 1019.26 212.466C1046.43 218.811 1073.74 237.645 1090.35 259.841C1112.1 288.894 1119.58 326.567 1114.56 362.145C1113.63 368.722 1110.34 375.916 1110.73 381.457L1111.84 382.491L1115.75 380.768Z"/><path fill="#DB554E" transform="scale(0.5 0.5)" d="M537.116 940.973C560.112 939.388 564.291 961.823 574.131 977.456C593.241 1007.82 623.704 978.562 649.625 985.71C670.574 991.486 681.085 1011.51 686.872 1030.71C689.429 1038.67 700.39 1041.96 696.307 1052.91C673.873 1057.05 672.673 1023.01 661.445 1010.37C641.799 988.249 619.264 1007.52 595.232 1005.71C569.39 1003.77 561.965 983.226 549.877 964.456C546.375 959.12 540.691 953.409 536.417 948.674C535.444 944.239 535.663 945.768 537.116 940.973Z"/><path fill="#DB554E" transform="scale(0.5 0.5)" d="M729.813 1120.6C734.328 1120.65 737.194 1121.92 737.292 1126.7C735.136 1131.48 690.79 1176.79 685.095 1181.5C681.759 1180.97 681.893 1180.96 678.855 1179.44C673.716 1169.32 720.265 1128.34 729.813 1120.6Z"/><path fill="#DB554E" transform="scale(0.5 0.5)" d="M759.325 1139.86C762.833 1140.26 768.785 1140.82 768.654 1145.39C768.292 1158.04 762.799 1196.75 756.567 1205.75C751.832 1205.51 750.348 1205.8 748.243 1201.36C748.373 1193.1 755.953 1146.5 759.325 1139.86Z"/><path fill="#DB554E" transform="scale(0.5 0.5)" d="M704.693 1088.37C709.725 1088.09 711.269 1087.51 714.549 1091.58C716.002 1103.13 671.884 1106.96 660.926 1109.71C655.677 1110.09 654.55 1110.78 651.007 1106.73C649.978 1099.05 661.325 1097.22 667.295 1095.85C679.642 1093.01 692.245 1090.73 704.693 1088.37Z"/></svg>